<svg width="100%" height="100%" viewBox="-25 -75 523.3 364.1" version="1.1" xmlns="http://www.w3.org/2000/svg" xmlns:xlink="http://www.w3.org/1999/xlink" xml:space="preserve" xmlns:serif="http://www.serif.com/" style="fill-rule:evenodd;clip-rule:evenodd;stroke-linejoin:round;stroke-miterlimit:2;">
   <rect id="Artboard1" x="0" y="0" width="418.605" height="291.259" style="fill:none;"/>
   <g id="Artboard11" serif:id="Artboard1">
      <g>
         <g>
            <rect x="70.075" y="174.442" width="64.332" height="74.95" style="fill:#f2f2f2;"/>
            <rect x="279.307" y="127.066" width="57.755" height="61.403" style="fill:#f2f2f2;"/>
            <rect x="90.089" y="58.92" width="88.57" height="43.952" style="fill:#f2f2f2;"/>
         </g>
         <path d="M217.555,248.013c2.032,0.693 0.581,1.717 -1.166,1.875c-1.426,0.125 -2.853,0.224 -4.282,0.299c0,0 -3.035,-1.615 0.967,-1.85c1.403,-0.086 2.804,-0.198 4.203,-0.333c0,0 0.162,0.004 0.278,0.009Zm12.548,-1.893c0.412,0.227 0.469,0.377 0.525,0.529c0.512,1.393 -2.959,1.69 -5.813,2.168c0,0 -1.733,-0.261 -1.078,-1.327c0.304,-0.495 1.103,-0.494 1.808,-0.617c1.784,-0.316 4.309,-0.808 4.309,-0.808c0.083,0.018 0.166,0.037 0.249,0.055Zm12,-3.355c2.813,1.152 -1.359,2.252 -5.04,3.305c0,0 -3.486,-0.845 0.49,-2.009c1.919,-0.568 4.296,-1.323 4.296,-1.323c0.085,0.009 0.17,0.018 0.254,0.027Zm11.79,-4.624c2.346,1.474 -1.652,2.448 -4.809,3.756c0,0 -2.566,-0.573 -0.821,-1.602c0.357,-0.146 0.713,-0.295 1.068,-0.445c1.572,-0.668 3.817,-1.702 3.817,-1.702c0.281,-0.085 0.129,-0.181 0.745,-0.007Zm10.947,-5.995c2.494,1.201 -1.376,2.626 -4.397,4.297c0,0 -0.437,0.445 -1.058,-0.017c-1.258,-0.936 1.964,-2.51 4.518,-4.068c0,0 0.181,-0.337 0.937,-0.212Zm10.203,-7.187c2.594,0.903 -1,2.705 -3.715,4.642c0,0 -0.681,0.538 -1.222,0.224c-0.489,-0.283 -0.756,-0.854 -0.069,-1.507c1.438,-1.019 2.854,-2.072 4.246,-3.157c0,0 0.022,-0.239 0.76,-0.202Zm9.588,-8.226c1.367,0.764 0.261,1.526 -0.585,2.341c-1.234,1.179 -3.072,2.838 -3.072,2.838c-0.392,0.26 -0.551,0.241 -0.712,0.22c-0.668,-0.087 -0.998,-0.946 -0.48,-1.559c0.282,-0.251 0.562,-0.504 0.841,-0.757c1.283,-1.17 3.058,-2.887 3.058,-2.887c0.151,-0.111 0.235,-0.36 0.95,-0.196Zm8.357,-9.303c1.391,0.584 0.487,1.42 -0.222,2.277c-1.151,1.381 -2.831,3.278 -2.831,3.278c-0.74,0.62 -2.147,0.021 -1.336,-1.196c1.171,-1.308 2.31,-2.64 3.42,-3.997c0,0 0.04,-0.466 0.969,-0.362Zm7.268,-10.177c1.915,0.563 -0.567,3.256 -2.348,5.769c0,0 -0.442,0.555 -0.967,0.453c-1.446,-0.28 0.708,-3.156 2.305,-5.623c0,0 -0.028,-0.6 1.01,-0.599Zm-204.89,-55.104c0.605,0.353 0.575,1.184 0.613,1.913c0.102,1.842 0.293,4.459 0.293,4.459c-0.156,0.444 -0.294,0.524 -0.435,0.605c-1.32,0.753 -1.565,-3.074 -1.702,-6.044c0,0 0.13,-1.206 1.231,-0.933Zm-0.003,-12.592c0.773,0.285 0.684,1.248 0.636,2.078c-0.102,1.835 -0.202,4.443 -0.202,4.443c-0.204,0.424 -0.351,0.489 -0.5,0.553c-1.383,0.598 -1.215,-3.219 -1.022,-6.171c0,0 0.089,-0.971 1.088,-0.903Zm1.641,-12.426c0.707,0.354 0.556,1.245 0.421,2.022c-0.297,1.735 -0.649,4.261 -0.649,4.261c-0.261,0.929 -1.761,1.227 -1.778,-0.235c0.053,-0.4 0.108,-0.8 0.165,-1.2c0.348,-2.397 0.097,-5.162 1.841,-4.848Zm215.033,-16.19c0.398,0.23 0.438,0.392 0.513,0.54c0.137,0.397 0.271,0.794 0.404,1.192c0.433,1.312 0.843,2.63 1.231,3.956c0,0 -0.893,3.256 -2.012,-0.478c-0.655,-2.165 -1.366,-4.338 -1.366,-4.338c0.064,-0.654 0.451,-1.063 1.23,-0.872Zm-4.848,-11.645c0.421,0.184 0.479,0.34 0.571,0.479c0.764,1.602 1.49,3.227 2.181,4.866c0,0 -0.448,3.499 -2.048,-0.234c-0.693,-1.602 -1.752,-3.861 -1.752,-3.861c-0.351,-1.13 0.454,-1.326 1.048,-1.25Zm-6.13,-11.023c0.439,0.136 0.514,0.285 0.621,0.412c0.947,1.522 1.861,3.069 2.741,4.635c0,0 0.253,0.598 -0.043,1.001c-0.862,1.172 -2.554,-1.994 -4.063,-4.435c0,0 -0.892,-1.637 0.744,-1.613Zm-7.081,-10.218c0.906,0.462 0.802,0.784 1.111,1.181c1.086,1.403 2.567,3.44 2.567,3.44c0.325,0.625 0.177,0.746 0.05,0.968c-0.791,1.382 -2.74,-1.671 -4.648,-4.092c0,0 -0.786,-1.818 0.92,-1.497Zm-8.426,-9.408c1.031,0.39 0.964,0.772 1.361,1.179c1.155,1.195 2.809,3.002 2.809,3.002c0.608,0.906 0.126,2.786 -2.047,0.416c-1.206,-1.306 -2.955,-3.091 -2.955,-3.091c-0.729,-0.983 -0.256,-1.589 0.832,-1.506Zm-9.18,-8.347c0,0 2.384,1.884 4.202,3.483c0,0 0.717,0.7 0.318,1.308c-0.798,1.214 -3.064,-1.357 -5.309,-3.171c0,0 -1.004,-2.074 0.789,-1.62Zm-10.3,-7.33c0,0 2.638,1.642 4.705,3.089c0,0 1.393,3.14 -1.85,0.898c-1.473,-1.012 -3.584,-2.368 -3.584,-2.368c-0.357,-0.306 -0.382,-0.464 -0.406,-0.625c-0.075,-0.504 0.081,-1.14 1.135,-0.994Zm-111.708,-4.168c2.413,1.347 -1.548,2.471 -4.462,4.201c0,0 -0.621,0.317 -1.053,0.019c-1.234,-0.851 1.96,-2.663 4.565,-4.064c0,0 0.209,-0.325 0.95,-0.156Zm100.646,-1.96c0,0 2.732,1.298 4.837,2.438c0,0 0.52,0.016 0.673,0.72c0.144,0.658 -0.553,1.259 -1.305,0.978c-1.547,-0.843 -3.108,-1.647 -4.687,-2.418c0,0 -1.367,-1.76 0.482,-1.718Zm-89.407,-3.349c0.444,0.155 0.525,0.293 0.606,0.434c0.725,1.266 -2.662,2.145 -5.34,3.351c0,0 -3.481,-0.422 0.196,-2.051c1.907,-0.839 4.283,-1.747 4.283,-1.747c0.085,0.004 0.17,0.008 0.255,0.013Zm77.976,-1.442c1.638,0.575 3.261,1.193 4.871,1.843c0,0 0.733,0.296 0.758,0.874c0.061,1.476 -3.085,0.096 -5.848,-0.892c0,0 -0.889,0.004 -0.971,-0.897c-0.046,-0.508 0.147,-1.134 1.19,-0.928Zm-65.965,-2.476c0.423,0.204 0.487,0.351 0.551,0.5c0.58,1.35 -2.872,1.825 -5.653,2.714c0,0 -0.647,0.145 -0.991,-0.23c-1.017,-1.112 2.562,-2.172 5.415,-2.949c0,0 0.351,-0.09 0.678,-0.035Zm53.816,-1.038c1.214,0.278 2.423,0.575 3.627,0.893c0.867,0.229 1.898,0.293 2.197,0.924c0.288,0.609 -0.256,1.35 -1.052,1.247c-1.716,-0.479 -3.439,-0.918 -5.173,-1.316c0,0 -1.483,-1.904 0.401,-1.748Zm-41.441,-1.495c2.564,1.621 -1.686,1.867 -5.489,2.628c0,0 -0.466,0.251 -0.903,-0.354c-0.331,-0.458 -0.342,-1.089 0.551,-1.405c0.426,-0.085 0.853,-0.168 1.28,-0.249c0.92,-0.172 1.843,-0.335 2.767,-0.486c0.232,-0.037 0.464,-0.074 0.696,-0.111c0.358,-0.056 0.707,-0.135 1.098,-0.023Zm29.23,-0.593c1.639,0.191 3.272,0.414 4.902,0.671c0,0 0.69,-0.2 0.933,0.681c0.428,1.553 -3.183,0.753 -6.295,0.401c0,0 -1.941,-2.024 0.46,-1.753Zm-16.883,-0.626c0.435,0.179 0.508,0.322 0.581,0.467c0.679,1.354 -3.051,1.368 -6.096,1.624c0,0 -0.491,0.197 -0.857,-0.454c-0.739,-1.314 3.073,-1.544 6.03,-1.661c0,0 0.179,0.006 0.342,0.024Zm4.359,-0.106c1.685,0.008 3.369,0.051 5.053,0.128c0,0 0.796,0.189 0.855,0.812c0.14,1.493 -3.354,0.857 -6.273,0.853c0,0 -2.2,-1.797 0.365,-1.793Z" style="fill:#384558;"/>
         <path d="M159.39,250.016l-89.939,0l0,-89.939l89.939,0l0,89.939Zm-88.69,-1.249l87.441,0l0,-87.441l-87.441,0l0,87.441Z" style="fill:#384558;fill-rule:nonzero;"/>
         <rect x="88.188" y="186.309" width="54.963" height="1.249" style="fill:#E5261F;"/>
         <rect x="88.188" y="200.05" width="26.918" height="1.249" style="fill-opacity:0.2;"/>
         <rect x="88.188" y="213.791" width="54.963" height="1.249" style="fill:#384558;"/>
         <path d="M351.654,189.078l-72.955,0l0,-72.955l72.955,0l0,72.955Zm-71.739,-1.216l70.523,0l0,-70.523l-70.523,0l0,70.523Z" style="fill:#384558;fill-rule:nonzero;"/>
         <rect x="288.123" y="149.257" width="40.125" height="1.216" style="fill:#E5261F;"/>
         <rect x="288.123" y="157.16" width="17.6" height="1.216" style="fill-opacity:0.2;"/>
         <rect x="288.123" y="165.064" width="40.125" height="1.216" style="fill:#384558;"/>
         <rect x="238.879" y="187.862" width="152.596" height="1.216" style="fill:#384558;"/>
         <rect x="28.254" y="249.298" width="172.333" height="1.168" style="fill:#384558;"/>
         <path d="M196.613,103.272l-106.923,0l0,-53.462l106.923,0l0,53.462Zm-106.125,-0.798l105.327,0l0,-51.866l-105.327,0l0,51.866Z" style="fill:#384558;fill-rule:nonzero;"/>
         <rect x="51.879" y="102.474" width="182.545" height="0.798" style="fill:#384558;"/>
         <rect x="102.883" y="71.255" width="54.963" height="1.249" style="fill:#E5261F;"/>
         <rect x="102.883" y="80.222" width="26.918" height="1.249" style="fill-opacity:0.2;"/>
         <rect x="102.883" y="89.19" width="54.963" height="1.249" style="fill:#384558;"/>
      </g>
   </g>
</svg>