<?xml version="1.0" encoding="utf-8" standalone="no"?>
<!DOCTYPE svg PUBLIC "-//W3C//DTD SVG 1.1//EN"
  "http://www.w3.org/Graphics/SVG/1.1/DTD/svg11.dtd">
<svg xmlns:xlink="http://www.w3.org/1999/xlink" width="400pt" viewBox="0 0 460.8 345.6" xmlns="http://www.w3.org/2000/svg" version="1.1">
 <metadata>
  <rdf:RDF xmlns:dc="http://purl.org/dc/elements/1.1/" xmlns:cc="http://creativecommons.org/ns#" xmlns:rdf="http://www.w3.org/1999/02/22-rdf-syntax-ns#">
   <cc:Work>
    <dc:type rdf:resource="http://purl.org/dc/dcmitype/StillImage"/>
    <dc:date>2024-07-15T00:43:55.411825</dc:date>
    <dc:format>image/svg+xml</dc:format>
    <dc:creator>
     <cc:Agent>
      <dc:title>Matplotlib v3.7.1, https://matplotlib.org/</dc:title>
     </cc:Agent>
    </dc:creator>
   </cc:Work>
  </rdf:RDF>
 </metadata>
 <defs>
  <style type="text/css">*{stroke-linejoin: round; stroke-linecap: butt}</style>
 </defs>
 <g id="figure_1">
  <g id="axes_1">
   <g id="patch_1">
    <path d="M 57.6 307.584 
L 414.72 307.584 
L 414.72 41.472 
L 57.6 41.472 
z
" style="fill: #ffffff"/>
   </g>
   <g id="patch_2">
    <path d="M 73.832727 307.584 
L 80.325818 307.584 
L 80.325818 306.947216 
L 73.832727 306.947216 
z
" clip-path="url(#pa1dc63c5fa)" style="fill: #d6d6d6; stroke: #e5261f; stroke-linejoin: miter"/>
   </g>
   <g id="patch_3">
    <path d="M 80.325818 307.584 
L 86.818909 307.584 
L 86.818909 305.036864 
L 80.325818 305.036864 
z
" clip-path="url(#pa1dc63c5fa)" style="fill: #d6d6d6; stroke: #e5261f; stroke-linejoin: miter"/>
   </g>
   <g id="patch_4">
    <path d="M 86.818909 307.584 
L 93.312 307.584 
L 93.312 303.126513 
L 86.818909 303.126513 
z
" clip-path="url(#pa1dc63c5fa)" style="fill: #d6d6d6; stroke: #e5261f; stroke-linejoin: miter"/>
   </g>
   <g id="patch_5">
    <path d="M 93.312 307.584 
L 99.805091 307.584 
L 99.805091 296.121889 
L 93.312 296.121889 
z
" clip-path="url(#pa1dc63c5fa)" style="fill: #d6d6d6; stroke: #e5261f; stroke-linejoin: miter"/>
   </g>
   <g id="patch_6">
    <path d="M 99.805091 307.584 
L 106.298182 307.584 
L 106.298182 296.758673 
L 99.805091 296.758673 
z
" clip-path="url(#pa1dc63c5fa)" style="fill: #d6d6d6; stroke: #e5261f; stroke-linejoin: miter"/>
   </g>
   <g id="patch_7">
    <path d="M 106.298182 307.584 
L 112.791273 307.584 
L 112.791273 286.570131 
L 106.298182 286.570131 
z
" clip-path="url(#pa1dc63c5fa)" style="fill: #d6d6d6; stroke: #e5261f; stroke-linejoin: miter"/>
   </g>
   <g id="patch_8">
    <path d="M 112.791273 307.584 
L 119.284364 307.584 
L 119.284364 277.655156 
L 112.791273 277.655156 
z
" clip-path="url(#pa1dc63c5fa)" style="fill: #d6d6d6; stroke: #e5261f; stroke-linejoin: miter"/>
   </g>
   <g id="patch_9">
    <path d="M 119.284364 307.584 
L 125.777455 307.584 
L 125.777455 270.650533 
L 119.284364 270.650533 
z
" clip-path="url(#pa1dc63c5fa)" style="fill: #d6d6d6; stroke: #e5261f; stroke-linejoin: miter"/>
   </g>
   <g id="patch_10">
    <path d="M 125.777455 307.584 
L 132.270545 307.584 
L 132.270545 245.179176 
L 125.777455 245.179176 
z
" clip-path="url(#pa1dc63c5fa)" style="fill: #d6d6d6; stroke: #e5261f; stroke-linejoin: miter"/>
   </g>
   <g id="patch_11">
    <path d="M 132.270545 307.584 
L 138.763636 307.584 
L 138.763636 240.721688 
L 132.270545 240.721688 
z
" clip-path="url(#pa1dc63c5fa)" style="fill: #d6d6d6; stroke: #e5261f; stroke-linejoin: miter"/>
   </g>
   <g id="patch_12">
    <path d="M 138.763636 307.584 
L 145.256727 307.584 
L 145.256727 232.443497 
L 138.763636 232.443497 
z
" clip-path="url(#pa1dc63c5fa)" style="fill: #d6d6d6; stroke: #e5261f; stroke-linejoin: miter"/>
   </g>
   <g id="patch_13">
    <path d="M 145.256727 307.584 
L 151.749818 307.584 
L 151.749818 201.241085 
L 145.256727 201.241085 
z
" clip-path="url(#pa1dc63c5fa)" style="fill: #d6d6d6; stroke: #e5261f; stroke-linejoin: miter"/>
   </g>
   <g id="patch_14">
    <path d="M 151.749818 307.584 
L 158.242909 307.584 
L 158.242909 196.783598 
L 151.749818 196.783598 
z
" clip-path="url(#pa1dc63c5fa)" style="fill: #d6d6d6; stroke: #e5261f; stroke-linejoin: miter"/>
   </g>
   <g id="patch_15">
    <path d="M 158.242909 307.584 
L 164.736 307.584 
L 164.736 195.51003 
L 158.242909 195.51003 
z
" clip-path="url(#pa1dc63c5fa)" style="fill: #d6d6d6; stroke: #e5261f; stroke-linejoin: miter"/>
   </g>
   <g id="patch_16">
    <path d="M 164.736 307.584 
L 171.229091 307.584 
L 171.229091 168.765106 
L 164.736 168.765106 
z
" clip-path="url(#pa1dc63c5fa)" style="fill: #d6d6d6; stroke: #e5261f; stroke-linejoin: miter"/>
   </g>
   <g id="patch_17">
    <path d="M 171.229091 307.584 
L 177.722182 307.584 
L 177.722182 180.227216 
L 171.229091 180.227216 
z
" clip-path="url(#pa1dc63c5fa)" style="fill: #d6d6d6; stroke: #e5261f; stroke-linejoin: miter"/>
   </g>
   <g id="patch_18">
    <path d="M 177.722182 307.584 
L 184.215273 307.584 
L 184.215273 191.689327 
L 177.722182 191.689327 
z
" clip-path="url(#pa1dc63c5fa)" style="fill: #d6d6d6; stroke: #e5261f; stroke-linejoin: miter"/>
   </g>
   <g id="patch_19">
    <path d="M 184.215273 307.584 
L 190.708364 307.584 
L 190.708364 201.877869 
L 184.215273 201.877869 
z
" clip-path="url(#pa1dc63c5fa)" style="fill: #d6d6d6; stroke: #e5261f; stroke-linejoin: miter"/>
   </g>
   <g id="patch_20">
    <path d="M 190.708364 307.584 
L 197.201455 307.584 
L 197.201455 199.330734 
L 190.708364 199.330734 
z
" clip-path="url(#pa1dc63c5fa)" style="fill: #d6d6d6; stroke: #e5261f; stroke-linejoin: miter"/>
   </g>
   <g id="patch_21">
    <path d="M 197.201455 307.584 
L 203.694545 307.584 
L 203.694545 212.703196 
L 197.201455 212.703196 
z
" clip-path="url(#pa1dc63c5fa)" style="fill: #d6d6d6; stroke: #e5261f; stroke-linejoin: miter"/>
   </g>
   <g id="patch_22">
    <path d="M 203.694545 307.584 
L 210.187636 307.584 
L 210.187636 214.613548 
L 203.694545 214.613548 
z
" clip-path="url(#pa1dc63c5fa)" style="fill: #d6d6d6; stroke: #e5261f; stroke-linejoin: miter"/>
   </g>
   <g id="patch_23">
    <path d="M 210.187636 307.584 
L 216.680727 307.584 
L 216.680727 224.80209 
L 210.187636 224.80209 
z
" clip-path="url(#pa1dc63c5fa)" style="fill: #d6d6d6; stroke: #e5261f; stroke-linejoin: miter"/>
   </g>
   <g id="patch_24">
    <path d="M 216.680727 307.584 
L 223.173818 307.584 
L 223.173818 219.707819 
L 216.680727 219.707819 
z
" clip-path="url(#pa1dc63c5fa)" style="fill: #d6d6d6; stroke: #e5261f; stroke-linejoin: miter"/>
   </g>
   <g id="patch_25">
    <path d="M 223.173818 307.584 
L 229.666909 307.584 
L 229.666909 226.712442 
L 223.173818 226.712442 
z
" clip-path="url(#pa1dc63c5fa)" style="fill: #d6d6d6; stroke: #e5261f; stroke-linejoin: miter"/>
   </g>
   <g id="patch_26">
    <path d="M 229.666909 307.584 
L 236.16 307.584 
L 236.16 213.976764 
L 229.666909 213.976764 
z
" clip-path="url(#pa1dc63c5fa)" style="fill: #d6d6d6; stroke: #e5261f; stroke-linejoin: miter"/>
   </g>
   <g id="patch_27">
    <path d="M 236.16 307.584 
L 242.653091 307.584 
L 242.653091 192.326111 
L 236.16 192.326111 
z
" clip-path="url(#pa1dc63c5fa)" style="fill: #d6d6d6; stroke: #e5261f; stroke-linejoin: miter"/>
   </g>
   <g id="patch_28">
    <path d="M 242.653091 307.584 
L 249.146182 307.584 
L 249.146182 177.68008 
L 242.653091 177.68008 
z
" clip-path="url(#pa1dc63c5fa)" style="fill: #d6d6d6; stroke: #e5261f; stroke-linejoin: miter"/>
   </g>
   <g id="patch_29">
    <path d="M 249.146182 307.584 
L 255.639273 307.584 
L 255.639273 142.020181 
L 249.146182 142.020181 
z
" clip-path="url(#pa1dc63c5fa)" style="fill: #d6d6d6; stroke: #e5261f; stroke-linejoin: miter"/>
   </g>
   <g id="patch_30">
    <path d="M 255.639273 307.584 
L 262.132364 307.584 
L 262.132364 115.91204 
L 255.639273 115.91204 
z
" clip-path="url(#pa1dc63c5fa)" style="fill: #d6d6d6; stroke: #e5261f; stroke-linejoin: miter"/>
   </g>
   <g id="patch_31">
    <path d="M 262.132364 307.584 
L 268.625455 307.584 
L 268.625455 108.907417 
L 262.132364 108.907417 
z
" clip-path="url(#pa1dc63c5fa)" style="fill: #d6d6d6; stroke: #e5261f; stroke-linejoin: miter"/>
   </g>
   <g id="patch_32">
    <path d="M 268.625455 307.584 
L 275.118545 307.584 
L 275.118545 66.879678 
L 268.625455 66.879678 
z
" clip-path="url(#pa1dc63c5fa)" style="fill: #d6d6d6; stroke: #e5261f; stroke-linejoin: miter"/>
   </g>
   <g id="patch_33">
    <path d="M 275.118545 307.584 
L 281.611636 307.584 
L 281.611636 54.144 
L 275.118545 54.144 
z
" clip-path="url(#pa1dc63c5fa)" style="fill: #d6d6d6; stroke: #e5261f; stroke-linejoin: miter"/>
   </g>
   <g id="patch_34">
    <path d="M 281.611636 307.584 
L 288.104727 307.584 
L 288.104727 54.780784 
L 281.611636 54.780784 
z
" clip-path="url(#pa1dc63c5fa)" style="fill: #d6d6d6; stroke: #e5261f; stroke-linejoin: miter"/>
   </g>
   <g id="patch_35">
    <path d="M 288.104727 307.584 
L 294.597818 307.584 
L 294.597818 76.431437 
L 288.104727 76.431437 
z
" clip-path="url(#pa1dc63c5fa)" style="fill: #d6d6d6; stroke: #e5261f; stroke-linejoin: miter"/>
   </g>
   <g id="patch_36">
    <path d="M 294.597818 307.584 
L 301.090909 307.584 
L 301.090909 77.068221 
L 294.597818 77.068221 
z
" clip-path="url(#pa1dc63c5fa)" style="fill: #d6d6d6; stroke: #e5261f; stroke-linejoin: miter"/>
   </g>
   <g id="patch_37">
    <path d="M 301.090909 307.584 
L 307.584 307.584 
L 307.584 91.714251 
L 301.090909 91.714251 
z
" clip-path="url(#pa1dc63c5fa)" style="fill: #d6d6d6; stroke: #e5261f; stroke-linejoin: miter"/>
   </g>
   <g id="patch_38">
    <path d="M 307.584 307.584 
L 314.077091 307.584 
L 314.077091 138.199477 
L 307.584 138.199477 
z
" clip-path="url(#pa1dc63c5fa)" style="fill: #d6d6d6; stroke: #e5261f; stroke-linejoin: miter"/>
   </g>
   <g id="patch_39">
    <path d="M 314.077091 307.584 
L 320.570182 307.584 
L 320.570182 153.482291 
L 314.077091 153.482291 
z
" clip-path="url(#pa1dc63c5fa)" style="fill: #d6d6d6; stroke: #e5261f; stroke-linejoin: miter"/>
   </g>
   <g id="patch_40">
    <path d="M 320.570182 307.584 
L 327.063273 307.584 
L 327.063273 184.04792 
L 320.570182 184.04792 
z
" clip-path="url(#pa1dc63c5fa)" style="fill: #d6d6d6; stroke: #e5261f; stroke-linejoin: miter"/>
   </g>
   <g id="patch_41">
    <path d="M 327.063273 307.584 
L 333.556364 307.584 
L 333.556364 198.69395 
L 327.063273 198.69395 
z
" clip-path="url(#pa1dc63c5fa)" style="fill: #d6d6d6; stroke: #e5261f; stroke-linejoin: miter"/>
   </g>
   <g id="patch_42">
    <path d="M 333.556364 307.584 
L 340.049455 307.584 
L 340.049455 234.353849 
L 333.556364 234.353849 
z
" clip-path="url(#pa1dc63c5fa)" style="fill: #d6d6d6; stroke: #e5261f; stroke-linejoin: miter"/>
   </g>
   <g id="patch_43">
    <path d="M 340.049455 307.584 
L 346.542545 307.584 
L 346.542545 260.46199 
L 340.049455 260.46199 
z
" clip-path="url(#pa1dc63c5fa)" style="fill: #d6d6d6; stroke: #e5261f; stroke-linejoin: miter"/>
   </g>
   <g id="patch_44">
    <path d="M 346.542545 307.584 
L 353.035636 307.584 
L 353.035636 273.834452 
L 346.542545 273.834452 
z
" clip-path="url(#pa1dc63c5fa)" style="fill: #d6d6d6; stroke: #e5261f; stroke-linejoin: miter"/>
   </g>
   <g id="patch_45">
    <path d="M 353.035636 307.584 
L 359.528727 307.584 
L 359.528727 278.928724 
L 353.035636 278.928724 
z
" clip-path="url(#pa1dc63c5fa)" style="fill: #d6d6d6; stroke: #e5261f; stroke-linejoin: miter"/>
   </g>
   <g id="patch_46">
    <path d="M 359.528727 307.584 
L 366.021818 307.584 
L 366.021818 292.301186 
L 359.528727 292.301186 
z
" clip-path="url(#pa1dc63c5fa)" style="fill: #d6d6d6; stroke: #e5261f; stroke-linejoin: miter"/>
   </g>
   <g id="patch_47">
    <path d="M 366.021818 307.584 
L 372.514909 307.584 
L 372.514909 302.489729 
L 366.021818 302.489729 
z
" clip-path="url(#pa1dc63c5fa)" style="fill: #d6d6d6; stroke: #e5261f; stroke-linejoin: miter"/>
   </g>
   <g id="patch_48">
    <path d="M 372.514909 307.584 
L 379.008 307.584 
L 379.008 303.126513 
L 372.514909 303.126513 
z
" clip-path="url(#pa1dc63c5fa)" style="fill: #d6d6d6; stroke: #e5261f; stroke-linejoin: miter"/>
   </g>
   <g id="patch_49">
    <path d="M 379.008 307.584 
L 385.501091 307.584 
L 385.501091 305.036864 
L 379.008 305.036864 
z
" clip-path="url(#pa1dc63c5fa)" style="fill: #d6d6d6; stroke: #e5261f; stroke-linejoin: miter"/>
   </g>
   <g id="patch_50">
    <path d="M 385.501091 307.584 
L 391.994182 307.584 
L 391.994182 304.40008 
L 385.501091 304.40008 
z
" clip-path="url(#pa1dc63c5fa)" style="fill: #d6d6d6; stroke: #e5261f; stroke-linejoin: miter"/>
   </g>
   <g id="patch_51">
    <path d="M 391.994182 307.584 
L 398.487273 307.584 
L 398.487273 306.947216 
L 391.994182 306.947216 
z
" clip-path="url(#pa1dc63c5fa)" style="fill: #d6d6d6; stroke: #e5261f; stroke-linejoin: miter"/>
   </g>
   <g id="matplotlib.axis_1"/>
   <g id="matplotlib.axis_2"/>
   <g id="line2d_1">
    <path d="M 247.069974 307.584 
L 247.069974 41.472 
" clip-path="url(#pa1dc63c5fa)" style="fill: none; stroke-dasharray: 5.55,2.4; stroke-dashoffset: 0; stroke: #2f2f41; stroke-width: 1.5"/>
   </g>
   <g id="patch_52">
    <path d="M 57.6 307.584 
L 414.72 307.584 
" style="fill: none; stroke: #e5261f; stroke-width: 0.8; stroke-linejoin: miter; stroke-linecap: square"/>
   </g>
  </g>
 </g>
 <defs>
  <clipPath id="pa1dc63c5fa">
   <rect x="57.6" y="41.472" width="357.12" height="266.112"/>
  </clipPath>
 </defs>
</svg>
