<?xml version="1.0" encoding="UTF-8" standalone="no"?>
<svg
   xmlns:dc="http://purl.org/dc/elements/1.1/"
   xmlns:cc="http://creativecommons.org/ns#"
   xmlns:rdf="http://www.w3.org/1999/02/22-rdf-syntax-ns#"
   xmlns:svg="http://www.w3.org/2000/svg"
   xmlns="http://www.w3.org/2000/svg"
   viewBox="0 0 4266.6665 3322.2"
   height="3322.2"
   width="4266.6665"
   xml:space="preserve"
   id="svg2"
   version="1.1">
   <metadata
      id="metadata8">
      <rdf:RDF>
         <cc:Work
            rdf:about="">
            <dc:format>image/svg+xml</dc:format>
            <dc:type
               rdf:resource="http://purl.org/dc/dcmitype/StillImage" />
         </cc:Work>
      </rdf:RDF>
   </metadata>
   <defs id="defs6" />
   <g transform="matrix(1.3333333,0,0,-1.3333333,0,3322.2)" id="g10">
      <g
         transform="scale(0.1)"
         id="g12">
         <g
            transform="scale(1.52731)"
            id="g14">
            <path
               id="path16"
               style="fill:#D6D6D6;fill-opacity:1;fill-rule:nonzero;stroke:none"
               d="m 3550.38,4824.29 v -281.02 c 0,-352.58 285.84,-638.44 638.43,-638.44 H 13051 c 352.7,0 638.5,285.86 638.5,638.44 v 281.02 c 0,352.65 -285.8,638.44 -638.5,638.44 h -0.2 c -352.5,78.7 -2078,-202.77 -2003.4,638.44 v 281.08 c 0,352.58 285.9,638.38 638.5,638.38 h 3975.7 c 352.6,0 638.4,285.86 638.4,638.44 v 281.09 c 0,352.58 -285.8,638.44 -638.4,638.44 h -1080.8 c -352.5,0 -638.4,285.79 -638.4,638.37 v 281.08 c 0,352.59 285.9,638.45 638.4,638.45 h 394.5 c 352.5,0 638.4,285.8 638.4,638.4 v 280.8 c 0,352.6 -285.9,638.4 -638.4,638.4 H 7119.69 c -352.58,0 -638.44,-285.8 -638.44,-638.4 v -280.8 c 0,-352.6 285.86,-638.4 638.44,-638.4 h 394.42 c 352.58,0 638.44,-285.86 638.44,-638.45 v -281.08 c 0,-352.58 -285.86,-638.37 -638.44,-638.37 H 5155.93 c -352.6,0 -638.43,-285.86 -638.43,-638.44 v -281.09 c 0,-352.58 285.83,-638.44 638.43,-638.44 h 48.18 c 352.6,0 638.43,-285.8 638.43,-638.38 v -281.08 c 0,-352.58 -285.83,-638.44 -638.43,-638.44 h -1015.3 c -352.59,0 -638.43,-285.79 -638.43,-638.44" />
         </g>
         <g
            transform="scale(1.44793)"
            id="g18">
            <path
               id="path20"
               style="fill:#E5261F;fill-opacity:1;fill-rule:nonzero;stroke:none"
               d="m 16300,10918.9 h -390.8 c -200.5,0 -380.4,-87.7 -503.8,-226.7 h 390.9 c 200.4,0 380.4,87.7 503.7,226.7" />
         </g>
         <g
            transform="scale(1.09574)"
            id="g22">
            <path
               id="path24"
               style="fill:#E5261F;fill-opacity:1;fill-rule:nonzero;stroke:none"
               d="m 9923.89,14128.9 h 549.81 c 491.4,0 889.9,-398.4 889.9,-889.9 v -391.8 c 0,-226.5 -84.9,-433.2 -224.4,-590.4 h 33.3 c 491.5,0 889.8,398.5 889.8,889.9 v 391.8 c 0,491.5 -398.3,889.9 -889.8,889.9 h -549.8 c -491.5,0 -889.83,398.4 -889.83,889.9 v 391.3 c 0,226.6 84.79,433.3 224.24,590.4 h -33.22 c -491.45,0 -889.9,-398.4 -889.9,-889.9 v -391.3 c 0,-491.5 398.45,-889.9 889.9,-889.9" />
         </g>
         <g
            transform="scale(1.51224)"
            id="g26">
            <path
               id="path28"
               style="fill:#E5261F;fill-opacity:1;fill-rule:nonzero;stroke:none"
               d="m 12308.8,7307.64 c -192,0 -364.2,-83.92 -482.3,-217.03 h 3991.2 c 191.9,0 364.2,83.98 482.3,217.03 h -3991.2" />
         </g>
         <g
            transform="scale(1.26763)"
            id="g30">
            <path
               id="path32"
               style="fill:#E5261F;fill-opacity:1;fill-rule:nonzero;stroke:none"
               d="m 5651,4963.67 c -424.82,0 -769.2,344.34 -769.2,769.22 v 338.59 c 0,195.87 73.31,374.55 193.85,510.32 h -28.74 c -424.82,0 -769.21,-344.34 -769.21,-769.23 v -338.58 c 0,-424.81 344.39,-769.23 769.21,-769.23 H 15724.6 c 229,0 434.5,100.18 575.4,258.91 H 5651" />
         </g>
         <path
            id="path34"
            style="fill:#E5261F;fill-opacity:1;fill-rule:nonzero;stroke:none"
            d="m 7874.71,10722.7 h 73.6 c 538.52,0 975.08,-436.5 975.08,-975 v -429.3 c 0,-248.3 -92.94,-474.8 -245.74,-646.9 h 36.43 c 538.52,0 975.09,436.6 975.09,975.1 v 429.2 c 0,538.6 -436.57,975.1 -975.09,975.1 h -73.6 c -538.52,0 -975.08,436.6 -975.08,975.1 v 429.3 c 0,248.2 92.95,474.7 245.75,646.9 h -36.44 c -538.51,0 -975.08,-436.6 -975.08,-975.1 v -429.3 c 0,-538.5 436.57,-975.1 975.08,-975.1" />
         <path
            id="path36"
            style="fill:#1c1918;fill-opacity:1;fill-rule:nonzero;stroke:none"
            d="m 2681.85,12162.7 c 14.46,-14.5 33.56,-21.4 52.64,-21.4 19.09,0 38.19,6.9 52.64,21.4 28.93,28.9 28.93,76.3 0,105.2 l -654.26,654.3 c -28.92,28.9 -76.36,28.9 -105.28,0 l -654.27,-654.3 c -28.93,-28.9 -28.93,-76.3 0,-105.2 28.93,-29 76.36,-29 105.28,0 l 601.63,602.2 601.62,-602.2" />
         <path
            id="path38"
            style="fill:#1c1918;fill-opacity:1;fill-rule:nonzero;stroke:none"
            d="m 2027.59,13770.8 -654.27,-654.2 c -28.93,-28.9 -28.93,-76.4 0,-105.3 28.93,-28.9 76.36,-28.9 105.28,0 l 601.63,602.2 601.62,-602.2 c 14.46,-14.5 33.56,-21.4 52.64,-21.4 19.09,0 38.19,6.9 52.64,21.4 28.93,28.9 28.93,76.4 0,105.3 l -654.26,654.2 c -28.92,29 -76.36,29 -105.28,0" />
         <g
            transform="scale(1.05192)"
            id="g40">
            <path
               id="path42"
               style="fill:#1c1918;fill-opacity:1;fill-rule:nonzero;stroke:none"
               d="m 4935.63,16159.2 c 112.18,0 203.48,-86.3 203.48,-193 0,-106.1 -91.3,-192.5 -203.48,-192.5 -111.63,0 -202.92,86.4 -202.92,192.5 0,106.7 91.29,193 202.92,193 z m 3842.92,-1909.9 c 112.19,0 203.48,-86.3 203.48,-193 0,-106.2 -91.29,-192.5 -203.48,-192.5 -111.63,0 -202.92,86.3 -202.92,192.5 0,106.7 91.29,193 202.92,193 z m -3842.92,1383.6 c 163.96,0 295.11,114 329.52,262.9 H 6871.4 v -1839.5 c 0,-39.1 31.34,-70.4 70.38,-70.4 h 1507.75 c 34.26,-148.9 165.08,-262.9 329.02,-262.9 189.74,0 344.26,149.6 344.26,333.3 0,184.2 -154.52,333.8 -344.26,333.8 -164.01,0 -294.85,-114.1 -329.06,-263.5 H 7012.18 v 1839.6 c 0,39 -31.35,70.4 -70.4,70.4 h -1676.6 c -34.3,149.3 -165.53,263.4 -329.55,263.4 -189.72,0 -343.7,-149.6 -343.7,-333.8 0,-183.7 153.98,-333.3 343.7,-333.3" />
         </g>
         <g
            transform="scale(1.64428)"
            id="g44">
            <path
               id="path46"
               style="fill:#1c1918;fill-opacity:1;fill-rule:nonzero;stroke:none"
               d="m 16218.4,6095.27 -390.9,-391.24 -390.9,391.24 c -17.5,17.57 -46,17.94 -63.6,0.3 -17.6,-17.57 -18,-46.04 -0.3,-63.67 l 422.8,-423.23 c 8.5,-8.76 20.1,-13.38 32,-13.38 12,0 23.6,4.62 32.1,13.38 l 422.8,423.23 c 17.6,17.63 17.3,46.1 -0.3,63.67 -17.6,17.64 -46.1,17.27 -63.7,-0.3" />
         </g>
         <g
            transform="scale(1.64425)"
            id="g48">
            <path
               id="path50"
               style="fill:#1c1918;fill-opacity:1;fill-rule:nonzero;stroke:none"
               d="m 16218.7,5546.86 -390.9,-391.24 -390.9,391.24 c -17.5,17.58 -46.4,17.58 -64,0 -17.2,-17.58 -17.2,-46.4 0,-64.04 l 422.9,-422.87 c 8.8,-8.82 20.5,-13.02 32,-13.02 11.6,0 23.2,4.2 32.1,13.02 l 422.8,422.87 c 17.3,17.64 17.3,46.46 0,64.04 -17.6,17.58 -46.4,17.58 -64,0" />
         </g>
         <g
            transform="scale(1.77683)"
            id="g52">
            <path
               id="path54"
               style="fill:#1c1918;fill-opacity:1;fill-rule:nonzero;stroke:none"
               d="m 16057.4,6653.35 c -87.9,0 -159.2,68.04 -159.2,151.39 0,83.35 71.3,151.39 159.2,151.39 87.9,0 159.2,-68.04 159.2,-151.39 0,-83.35 -71.3,-151.39 -159.2,-151.39 z M 13057,8055.62 c -87.9,0 -159.2,67.7 -159.2,151.05 0,83.35 71.3,151.4 159.2,151.4 87.9,0 159.2,-68.05 159.2,-151.4 0,-83.35 -71.3,-151.05 -159.2,-151.05 z m 3000.4,-1016.13 c -118.5,0 -212.8,-84.14 -233.8,-193.04 H 14751 v 1360.22 c 0,23.13 -18.6,41.65 -41.8,41.65 h -1418.4 c -21,108.9 -115.3,193.08 -233.8,193.08 -133.8,0 -242.6,-105.17 -242.6,-234.73 0,-129.27 108.8,-234.4 242.6,-234.4 118.5,0 212.7,84.08 233.8,192.7 h 1376.8 V 6804.74 c 0,-23.07 18.5,-41.64 41.6,-41.64 h 1114.4 c 21,-108.91 115.3,-193.1 233.8,-193.1 133.9,0 242.6,105.19 242.6,234.74 0,129.61 -108.7,234.75 -242.6,234.75" />
         </g>
         <g
            transform="scale(1.39447)"
            id="g56">
            <path
               id="path58"
               style="fill:#1c1918;fill-opacity:1;fill-rule:nonzero;stroke:none"
               d="m 13860.1,13620.5 c 1,-0.2 1.6,-1.2 2.7,-1.2 0.5,0 0.8,0.5 1.3,0.5 104.5,-1.9 189.5,-91.3 189.5,-202.1 0,-112 -86.7,-202.9 -192.9,-202.9 -106.2,0 -192.9,90.9 -192.9,202.9 0,111.8 86.4,202.3 192.3,202.8 z m 2108.4,2127.8 c 124,0 225.3,-100.8 225.3,-224.9 0,-124 -101.3,-225.2 -225.3,-225.2 -124,0 -224.8,101.2 -224.8,225.2 0,124.1 100.8,224.9 224.8,224.9 z m -2107.8,-2639.7 c 165.1,0 299.1,138.6 299.1,309.1 0,150.3 -106.2,269.9 -243.9,297.5 v 1756.4 H 15648 c 25.8,-157.3 156.4,-279.6 320.5,-279.6 183,0 331.5,148.5 331.5,331.4 0,182.6 -148.5,331.1 -331.5,331.1 -163.2,0 -293.1,-120.9 -320,-276.7 h -1785.7 c -29.5,0 -53.1,-23.7 -53.1,-53.1 v -1808.6 c -139.8,-26 -248.1,-146.6 -248.1,-298.4 0,-170.5 134,-309.1 299.1,-309.1" />
         </g>
         <g
            transform="scale(1.41807)"
            id="g60">
            <path
               id="path62"
               style="fill:#1c1918;fill-opacity:1;fill-rule:nonzero;stroke:none"
               d="m 12055.4,15946.7 h 196.6 v -196.6 c 0,-29 23.3,-52.2 52.2,-52.2 29,0 52.3,23.2 52.3,52.2 v 196.6 h 197 c 29,0 52.2,23.3 52.2,52.2 0,29 -23.2,52.3 -52.2,52.3 h -197 v 196.6 c 0,29 -23.3,52.2 -52.3,52.2 -28.9,0 -52.2,-23.2 -52.2,-52.2 v -196.6 h -196.6 c -29,0 -52.2,-23.3 -52.2,-52.3 0,-28.9 23.2,-52.2 52.2,-52.2" />
         </g>
         <g
            transform="scale(1.18781)"
            id="g64">
            <path
               id="path66"
               style="fill:#1c1918;fill-opacity:1;fill-rule:nonzero;stroke:none"
               d="m 5940.14,15878.2 h 234.75 v -234.7 c 0,-34.6 27.76,-62.3 62.33,-62.3 34.58,0 62.34,27.7 62.34,62.3 v 234.7 h 234.75 c 34.57,0 62.34,27.8 62.34,62.4 0,34.6 -27.77,62.3 -62.34,62.3 h -234.75 v 234.8 c 0,34.5 -27.76,62.3 -62.34,62.3 -34.57,0 -62.33,-27.8 -62.33,-62.3 v -234.8 h -234.75 c -34.57,0 -62.34,-27.7 -62.34,-62.3 0,-34.6 27.77,-62.4 62.34,-62.4" />
         </g>
         <g
            transform="scale(1.45391)"
            id="g68">
            <path
               id="path70"
               style="fill:#1c1918;fill-opacity:1;fill-rule:nonzero;stroke:none"
               d="m 16249,5208.7 h -186.6 v 186.18 c 0,28.27 -22.7,50.9 -50.9,50.9 -28.2,0 -50.9,-22.63 -50.9,-50.9 V 5208.7 h -186.2 c -28.3,0 -51,-22.7 -51,-50.97 0,-28.2 22.7,-50.89 51,-50.89 h 186.2 v -186.6 c 0,-28.27 22.7,-50.97 50.9,-50.97 28.2,0 50.9,22.7 50.9,50.97 v 186.6 h 186.6 c 28.3,0 51,22.69 51,50.89 0,28.27 -22.7,50.97 -51,50.97" />
         </g>
         <path
            id="path72"
            style="fill:#1c1918;fill-opacity:1;fill-rule:nonzero;stroke:none"
            d="M 3424.62,7444.5 H 3153.9 v 271.4 c 0,41 -32.98,74 -74.05,74 -41.08,0 -74.05,-33 -74.05,-74 v -271.4 h -271.31 c -41.07,0 -74.04,-32.9 -74.04,-74 0,-41.1 32.97,-74 74.04,-74 h 271.31 v -270.8 c 0,-41 32.97,-74 74.05,-74 41.07,0 74.05,33 74.05,74 v 270.8 h 270.72 c 41.08,0 74.05,32.9 74.05,74 0,41.1 -32.97,74 -74.05,74" />
         <g
            transform="scale(1.6062)"
            id="g74">
            <path
               id="path76"
               style="fill:#1c1918;fill-opacity:1;fill-rule:nonzero;stroke:none"
               d="m 14485.2,13549.2 147.3,17.6 c 19.8,2.2 36,17.3 40,36.7 17.6,90.8 56.1,178.7 110.9,254.3 11.9,16.6 11.5,39.3 -1.5,55.5 l -95.8,121.7 102.3,102.3 130.4,-102.7 c 14.8,-11.5 36.4,-12.9 52.6,-2.8 72.8,45 156.6,75.6 242.4,87.9 20.5,3.2 36.3,19.4 38.9,40.3 l 21.6,178.6 h 144.4 l 23.4,-194.1 c 2.2,-18.7 15.8,-34.2 33.9,-39.3 76,-19.8 146.6,-52.9 209.9,-97.9 16.2,-11.9 39,-11.5 55.1,1.1 l 163.5,128.9 102.3,-102.3 -135.7,-172.1 c -11.6,-15.2 -13,-35.7 -3.3,-52.3 36.7,-61.2 63.1,-128.2 78.2,-198.8 3.9,-19.1 19.8,-33.8 39.6,-36 l 222.2,-26.6 v -144.5 l -222.2,-26.6 c -19.8,-2.2 -35.7,-17 -39.6,-36 -14.8,-69.5 -41.1,-136.2 -77.8,-198.8 -9.7,-16.2 -8.3,-37.1 3.2,-51.9 l 135.4,-172.5 -102.3,-102.3 -163.5,128.9 c -15.8,12.3 -38.5,12.3 -55.1,1.5 -64.1,-45.4 -134.6,-78.5 -209.9,-98.3 -18.1,-5.1 -31.7,-20.6 -33.9,-39.3 l -23.4,-193.8 h -144.4 l -21.6,178.3 c -2.6,20.5 -18.4,37.1 -38.9,40.3 -86.4,13 -168.2,42.5 -242.4,87.9 -16.9,10.8 -37.8,9 -52.6,-2.9 l -130.4,-102.6 -102.3,102.3 95.8,122.1 c 12.7,16.2 13,38.9 1.2,55.4 -55.2,76.4 -92.6,161.8 -110.6,253.9 -4,19.5 -20.2,34.6 -40,36.8 l -147.3,17.6 z m -51.5,-231.3 155.6,-18.3 c 19.7,-81.8 52.9,-158.1 99,-228.4 l -100.1,-127.5 c -14.4,-18.3 -12.6,-44.6 3.6,-61.2 l 160.3,-160.3 c 16.1,-15.8 42.8,-17.6 61.2,-3.6 l 137.9,108.8 c 67,-37.1 138.7,-63.4 213.9,-78.5 l 22.4,-184.8 c 2.9,-23.4 22.3,-40.7 45.8,-40.7 h 226.5 c 23.4,0 42.9,17.3 45.7,40.7 l 24.5,203.9 c 63.4,19.8 123.9,47.9 180.5,84.3 l 169.2,-133.7 c 18,-14.4 44.3,-12.6 61.3,3.6 l 160.2,160.3 c 16.2,16.6 18,42.9 3.6,61.2 l -141.9,180.5 c 28.8,53.3 50.5,108.7 65.6,166 l 230.8,27.7 c 23.5,2.9 40.7,22.4 40.7,45.8 v 226.5 c 0,23.4 -17.2,42.9 -40.7,45.8 l -230.8,27.7 c -15.1,58 -37.1,113.8 -65.6,166.4 l 141.9,180.1 c 14.4,18.3 12.6,44.6 -3.6,61.2 l -160.2,160.3 c -17,16.2 -43.6,18 -61.3,3.6 l -169.2,-133.7 c -55.9,36.1 -116.4,64.5 -180.5,84.3 l -24.5,204.2 c -2.8,23.4 -22.3,40.7 -45.7,40.7 h -226.5 c -23.5,0 -42.9,-17.3 -45.8,-40.7 l -22.4,-185.1 c -74.9,-14.8 -147.6,-41.4 -213.9,-78.2 l -137.9,108.5 c -18,14 -44.7,12.6 -61.2,-3.6 l -160.3,-160.3 c -16.2,-16.6 -18,-42.9 -3.2,-61.2 l 100.1,-127.2 c -45.8,-69.8 -79.7,-148 -99.4,-228.7 l -155.6,-18.3 c -23.1,-2.9 -40.7,-22.4 -40.7,-45.8 v -226.5 c 0,-23.4 17.6,-42.9 40.7,-45.8" />
         </g>
         <g
            transform="scale(1.5393)"
            id="g78">
            <path
               id="path80"
               style="fill:#1c1918;fill-opacity:1;fill-rule:nonzero;stroke:none"
               d="m 15796.8,14239.4 c 44.7,44.8 104.4,69.6 168,69.6 63.8,0 123.6,-24.8 169.1,-70.3 44.7,-44.7 69.5,-104.5 69.9,-168 0,-63.9 -24.8,-123.6 -70.3,-168.7 -44.7,-45.1 -104.9,-70.3 -168.3,-70.3 -0.4,0 -0.4,0 -0.4,0 -63.6,0.4 -123.3,25.2 -168.4,70.3 -45.1,45.1 -69.9,104.8 -69.9,168.7 0,63.5 24.8,123.3 70.3,168.7 z m 168,-503.9 c 0,0 0,0 0.4,0 89.4,0 173.2,34.9 236.7,98.1 63.1,63.5 98.1,147.7 98.1,237.1 -0.4,89.5 -35,173.3 -98.1,236 -127,127 -347.6,127 -473.1,0.8 -63.6,-63.5 -98.5,-147.3 -98.5,-236.8 0,-89.8 34.9,-173.6 98.1,-236.7 63.1,-63.6 146.9,-98.1 236.4,-98.5" />
         </g>
         <g
            transform="scale(1.36629)"
            id="g82">
            <path
               id="path84"
               style="fill:#1c1918;fill-opacity:1;fill-rule:nonzero;stroke:none"
               d="m 16279.2,1340.49 c 20.8,21.15 20.8,55.92 0,77.07 -21.1,21.15 -55.8,21.15 -77.1,0 -183.7,-184.58 -484.3,-184.58 -668,0 -21.2,21.15 -56,21.15 -77.1,0 -20.7,-21.15 -20.7,-55.92 0,-77.07 113.5,-113 262.5,-169.8 411.1,-169.8 148.7,0 297.7,56.8 411.1,169.8" />
         </g>
         <g
            transform="scale(1.44028)"
            id="g86">
            <path
               id="path88"
               style="fill:#1c1918;fill-opacity:1;fill-rule:nonzero;stroke:none"
               d="m 16207.2,580.371 c -636.6,-637.3748 -1672.4,-636.61 -2308.3,0 -20,20.138 -52.9,20.138 -73,0 -20.1,-20.064 -20.1,-52.973 0,-73.04 C 14164.4,169.135 14608.7,0 15053.3,0 c 444.2,0 888.4,169.135 1227.1,507.331 19.6,20.067 19.6,52.976 0,73.04 -20.2,20.138 -53.1,20.138 -73.2,0" />
         </g>
         <g
            transform="scale(1.4066)"
            id="g90">
            <path
               id="path92"
               style="fill:#1c1918;fill-opacity:1;fill-rule:nonzero;stroke:none"
               d="m 14547.6,984.998 c -20.1,-20.544 -20.1,-54.314 0,-74.859 239,-238.518 552.3,-357.813 865.7,-357.813 313.4,0 627.2,119.295 865.7,357.813 20.6,20.545 21,53.887 0.5,74.434 -20.6,20.617 -53.9,20.977 -74.5,0.425 -436.7,-436.727 -1146.6,-436.727 -1582.5,0 -20.6,20.552 -54.3,20.552 -74.9,0" />
         </g>
         <g
            transform="scale(1.33477)"
            id="g94">
            <path
               id="path96"
               style="fill:#1c1918;fill-opacity:1;fill-rule:nonzero;stroke:none"
               d="m 12189.3,3880.21 c 0,117.47 95.7,213.22 213.2,213.22 117.5,0 212.8,-95.75 212.8,-213.22 0,-116.5 -94.1,-211.2 -210.2,-212.69 -1.5,0.14 -2.4,1.64 -4,1.64 -1.2,0 -1.8,-1.2 -3,-1.34 -115.3,2.54 -208.8,96.49 -208.8,212.39 z M 16189,1834.17 c 0,-30.79 24.8,-55.51 55.5,-55.51 30.8,0 55.5,24.72 55.5,55.51 v 927.42 c 0,30.8 -24.7,55.52 -55.5,55.52 h -3787.9 v 749.94 c 151.8,26.82 269.6,153.81 269.6,313.16 0,178.53 -145.2,324.18 -323.7,324.18 -178.6,0 -324.2,-145.65 -324.2,-324.18 0,-158.38 116.8,-284.84 267.4,-312.71 v -805.91 c 0,-30.71 24.7,-55.44 55.4,-55.44 H 16189 v -871.98" />
         </g>
         <path
            id="path98"
            style="fill:#1c1918;fill-opacity:1;fill-rule:nonzero;stroke:none"
            d="m 13061.5,4895 c -1.3,0.2 -2.1,1.3 -3.4,1.3 -0.9,0 -1.4,-1 -2.3,-1 -155.1,2 -280.6,128.3 -280.6,283.9 0,156.8 127.3,284.6 284.1,284.6 156.7,0 284.6,-127.8 284.6,-284.6 0,-155.9 -126.7,-282.9 -282.4,-284.2 z M 8523.38,3372.6 c -172.96,0 -314.11,140.6 -314.11,313.5 0,173 141.15,314.2 314.11,314.2 172.97,0 313.54,-141.2 313.54,-314.2 0,-172.9 -140.57,-313.5 -313.54,-313.5 z m 4535.92,2239.3 c -238.4,0 -432.2,-194.4 -432.2,-432.7 0,-211.7 155.8,-380.5 357,-417.4 V 3761.9 H 8969.72 c -37.42,217.5 -218.63,386.4 -446.34,386.4 -255.11,0 -462.2,-207.1 -462.2,-462.2 0,-254.5 207.09,-461.6 462.2,-461.6 228.9,0 410.95,170.5 446.99,389.3 h 4087.73 c 41.1,0 74.1,33 74.1,74.1 v 1073.3 c 202.4,36.1 359.8,205.4 359.8,418 0,238.3 -194.4,432.7 -432.7,432.7" />
         <g
            transform="scale(1.52859)"
            id="g100">
            <path
               id="path102"
               style="fill:#1c1918;fill-opacity:1;fill-rule:nonzero;stroke:none"
               d="m 8782.55,13554 c -103.7,0 -188.09,84.4 -188.09,188.1 0,103.4 83.87,187.4 187.17,187.8 0.19,0 0.33,-0.1 0.52,-0.1 0.26,0 0.46,0.2 0.72,0.2 103.56,-0.1 187.76,-84.3 187.76,-187.9 0,-103.7 -84.4,-188.1 -188.08,-188.1 z m 178.2,-940.8 c 0,-98.1 -79.81,-177.9 -178.2,-177.9 -98.4,0 -178.27,79.8 -178.27,177.9 0,98.4 79.87,178.2 178.27,178.2 98.39,0 178.2,-79.8 178.2,-178.2 z m -1336.99,3590.2 h 1288.58 v -323.5 h -308.06 c -26.89,0 -48.42,-21.6 -48.42,-48.5 0,-26.8 21.53,-48.4 48.42,-48.4 h 356.47 921.89 V 14434.2 H 7623.76 Z M 10139.6,13790.5 H 9057.7 c -20.93,116.9 -110.1,206 -227.14,226.8 v 320 h 1100.56 c 26.89,0 48.41,21.6 48.41,48.5 v 1445.6 c 0,26.9 -21.52,48.5 -48.41,48.5 h -921.89 v 372 c 0,26.9 -21.6,48.4 -48.48,48.4 H 7575.29 c -26.89,0 -48.41,-21.5 -48.41,-48.4 v -1866.1 c 0,-26.9 21.52,-48.5 48.41,-48.5 h 1158.45 v -320.1 c -116.64,-21.1 -205.48,-110 -226.35,-226.7 H 7492.4 c -26.82,0 -48.41,-21.6 -48.41,-48.4 0,-26.9 21.59,-48.5 48.41,-48.5 h 1014.99 c 20.87,-116.8 109.9,-205.8 226.68,-226.7 v -588.5 c -127.77,-23.6 -226.68,-130.7 -226.68,-265.2 0,-151.4 123.38,-274.8 275.16,-274.8 151.77,0 275.09,123.4 275.09,274.8 0,134.5 -98.85,241.6 -226.68,265.2 v 588.5 c 116.83,20.9 205.81,109.9 226.74,226.7 h 1081.9 c 26.9,0 48.5,21.6 48.5,48.5 0,26.8 -21.6,48.4 -48.5,48.4" />
         </g>
         <g
            transform="scale(1.44781)"
            id="g104">
            <path
               id="path106"
               style="fill:#1c1918;fill-opacity:1;fill-rule:nonzero;stroke:none"
               d="m 8400.69,16197.7 h 1635.01 c 28.4,0 51.1,22.8 51.1,51.2 0,28.3 -22.7,51.1 -51.1,51.1 H 8400.69 c -28.31,0 -51.11,-22.8 -51.11,-51.1 0,-28.4 22.8,-51.2 51.11,-51.2" />
         </g>
         <g
            transform="scale(1.41807)"
            id="g108">
            <path
               id="path110"
               style="fill:#1c1918;fill-opacity:1;fill-rule:nonzero;stroke:none"
               d="m 8576.88,16195.6 h 1669.32 c 29,0 52.2,23.2 52.2,52.2 0,29 -23.2,52.2 -52.2,52.2 H 8576.88 c -28.91,0 -52.19,-23.2 -52.19,-52.2 0,-29 23.28,-52.2 52.19,-52.2" />
         </g>
         <g
            transform="scale(1.38829)"
            id="g112">
            <path
               id="path114"
               style="fill:#1c1918;fill-opacity:1;fill-rule:nonzero;stroke:none"
               d="m 10519.3,16246.7 c 0,29.5 -23.7,53.3 -53.4,53.3 H 8760.83 c -29.53,0 -53.3,-23.8 -53.3,-53.3 0,-29.6 23.77,-53.4 53.3,-53.4 h 1705.07 c 29.7,0 53.4,23.8 53.4,53.4" />
         </g>
         <path
            id="path116"
            style="fill:#1c1918;fill-opacity:1;fill-rule:nonzero;stroke:none"
            d="m 2080.23,10275.1 c -41.07,0 -74.05,-33 -74.05,-74.1 v -424 c 0,-41.1 32.98,-74 74.05,-74 41.07,0 74.04,32.9 74.04,74 v 424 c 0,41.1 -32.97,74.1 -74.04,74.1" />
         <path
            id="path118"
            style="fill:#1c1918;fill-opacity:1;fill-rule:nonzero;stroke:none"
            d="m 2080.23,11908.7 c -41.07,0 -74.05,-33 -74.05,-74 v -1343.3 c 0,-41.1 32.98,-74 74.05,-74 41.07,0 74.04,32.9 74.04,74 v 1343.3 c 0,41 -32.97,74 -74.04,74" />
         <g
            transform="scale(1.16616)"
            id="g120">
            <path
               id="path122"
               style="fill:#1c1918;fill-opacity:1;fill-rule:nonzero;stroke:none"
               d="m 126.989,13470 v 1867.2 h 506.972 c 15.378,0 30.26,5.4 41.669,15.8 l 162.707,142.4 h 367.573 l 134.43,-138.9 c 11.92,-12.4 28.29,-19.3 45.64,-19.3 h 252.5 c 35.22,0 63.5,28.2 63.5,63.4 0,35.3 -28.28,63.5 -63.5,63.5 h -225.71 l -134.43,138.9 c -11.9,12.4 -28.27,19.4 -45.64,19.4 H 814.528 c -15.379,0 -30.258,-5.5 -41.67,-15.9 l -162.71,-142.4 H 126.989 v 432.1 c 0,152.8 124.018,276.8 276.8,276.8 H 3246.21 c 152.28,0 276.3,-124 276.3,-276.8 v -432.1 H 2170.75 c -35.22,0 -63.5,-28.2 -63.5,-63.5 0,-35.2 28.28,-63.4 63.5,-63.4 H 3522.51 V 13470 c 0,-152.8 -124.02,-276.8 -276.3,-276.8 H 403.789 c -152.782,0 -276.8,124 -276.8,276.8 z m 3522.511,0 v 2426.2 c 0,222.7 -181.06,403.8 -403.29,403.8 H 403.789 C 181.063,16300 0,16118.9 0,15896.2 V 13470 c 0,-222.7 181.063,-403.8 403.789,-403.8 H 3246.21 c 222.23,0 403.29,181.1 403.29,403.8" />
         </g>
         <g
            transform="scale(1.10636)"
            id="g124">
            <path
               id="path126"
               style="fill:#1c1918;fill-opacity:1;fill-rule:nonzero;stroke:none"
               d="m 2077.89,16300 h -129.68 c -37.12,0 -66.92,-29.8 -66.92,-66.9 0,-37.1 29.8,-67 66.92,-67 h 129.68 c 37.12,0 66.92,29.9 66.92,67 0,37.1 -29.8,66.9 -66.92,66.9" />
         </g>
         <g
            transform="scale(1.14551)"
            id="g128">
            <path
               id="path130"
               style="fill:#1c1918;fill-opacity:1;fill-rule:nonzero;stroke:none"
               d="m 2584.1,16170.7 c 33.83,0 61.1,-27.2 61.1,-61.1 0,-33.8 -27.27,-61.1 -61.1,-61.1 -33.84,0 -61.1,27.3 -61.1,61.1 0,33.9 27.26,61.1 61.1,61.1 z m 0,-251.5 c 105.04,0 190.38,85.4 190.38,190.4 0,105 -85.34,190.4 -190.38,190.4 -105.04,0 -190.38,-85.4 -190.38,-190.4 0,-105 85.34,-190.4 190.38,-190.4" />
         </g>
         <g
            transform="scale(1.14551)"
            id="g132">
            <path
               id="path134"
               style="fill:#1c1918;fill-opacity:1;fill-rule:nonzero;stroke:none"
               d="m 2066.47,16170.7 c 33.83,0 61.1,-27.2 61.1,-61.1 0,-33.8 -27.27,-61.1 -61.1,-61.1 -33.34,0 -60.6,27.3 -60.6,61.1 0,33.9 27.26,61.1 60.6,61.1 z m 0,-251.5 c 105.04,0 190.38,85.4 190.38,190.4 0,105 -85.34,190.4 -190.38,190.4 -104.54,0 -189.88,-85.4 -189.88,-190.4 0,-105 85.34,-190.4 189.88,-190.4" />
         </g>
         <g
            transform="scale(1.14551)"
            id="g136">
            <path
               id="path138"
               style="fill:#1c1918;fill-opacity:1;fill-rule:nonzero;stroke:none"
               d="m 3101.22,16170.7 c 33.84,0 61.11,-27.2 61.11,-61.1 0,-33.8 -27.27,-61.1 -61.11,-61.1 -33.84,0 -61.1,27.3 -61.1,61.1 0,33.9 27.26,61.1 61.1,61.1 z m 0,-251.5 c 105.04,0 190.39,85.4 190.39,190.4 0,105 -85.35,190.4 -190.39,190.4 -105.04,0 -190.39,-85.4 -190.39,-190.4 0,-105 85.35,-190.4 190.39,-190.4" />
         </g>
         <g
            transform="scale(1.96319)"
            id="g140">
            <path
               id="path142"
               style="fill:#1c1918;fill-opacity:1;fill-rule:nonzero;stroke:none"
               d="m 16224.6,7011.29 h -1045.2 c -11.5,0 -22.7,-5.29 -29.8,-14.46 l -286.7,-367.42 v 344.14 c 0,20.93 -16.8,37.74 -37.7,37.74 h -189.5 v 937.32 h 1588.9 z m 37.7,1012.76 H 14598 c -20.9,0 -37.7,-16.8 -37.7,-37.72 V 6973.55 c 0,-20.89 16.8,-37.7 37.7,-37.7 h 189.5 V 6519.8 c 0,-16.2 10.3,-30.36 25.3,-35.66 4.2,-1.48 8.3,-2.09 12.4,-2.09 11.5,0 22.4,5.3 29.8,14.47 l 342.7,439.33 h 1064.6 c 20.9,0 37.7,16.81 37.7,37.7 v 1012.78 c 0,20.92 -16.8,37.72 -37.7,37.72" />
         </g>
         <g
            transform="scale(1.8245)"
            id="g144">
            <path
               id="path146"
               style="fill:#1c1918;fill-opacity:1;fill-rule:nonzero;stroke:none"
               d="m 16124,8191.39 c 52.4,0 94.8,-40.27 94.8,-89.43 0,-49.11 -42.4,-89.39 -94.8,-89.39 -52,0 -94.5,40.28 -94.5,89.39 0,49.16 42.5,89.43 94.5,89.43 z m 0,-260 c 97,0 176,76.41 176,170.57 0,94.19 -79,170.6 -176,170.6 -96.7,0 -175.7,-76.41 -175.7,-170.6 0,-94.16 79,-170.57 175.7,-170.57" />
         </g>
         <g
            transform="scale(1.93175)"
            id="g148">
            <path
               id="path150"
               style="fill:#1c1918;fill-opacity:1;fill-rule:nonzero;stroke:none"
               d="m 16133.8,7736.6 c 49.4,0 89.5,-38.03 89.5,-84.47 0,-46.38 -40.1,-84.43 -89.5,-84.43 -49.1,0 -89.3,38.05 -89.3,84.43 0,46.44 40.2,84.47 89.3,84.47 z m 0,-245.56 c 91.6,0 166.2,72.16 166.2,161.09 0,88.97 -74.6,161.13 -166.2,161.13 -91.3,0 -165.9,-72.16 -165.9,-161.13 0,-88.93 74.6,-161.09 165.9,-161.09" />
         </g>
         <g
            transform="scale(1.87954)"
            id="g152">
            <path
               id="path154"
               style="fill:#1c1918;fill-opacity:1;fill-rule:nonzero;stroke:none"
               d="m 16129.2,7951.51 c 50.8,0 92,-39.1 92,-86.82 0,-47.67 -41.2,-86.77 -92,-86.77 -50.8,0 -92,39.1 -92,86.77 0,47.72 41.2,86.82 92,86.82 z m 0,-252.39 c 94.2,0 170.8,74.17 170.8,165.57 0,91.43 -76.6,165.61 -170.8,165.61 -94.2,0 -170.8,-74.18 -170.8,-165.61 0,-91.4 76.6,-165.57 170.8,-165.57" />
         </g>
         <path
            id="path156"
            style="fill:#1c1918;fill-opacity:1;fill-rule:nonzero;stroke:none"
            d="m 4808.36,5052.5 c 48.59,19.7 98.34,35.9 148.67,48.6 39.34,9.8 63.63,49.8 53.8,89.7 -9.26,39.3 -45.12,64.8 -89.67,53.8 -57.27,-13.9 -114.53,-33 -169.49,-55.6 -37.6,-15 -55.54,-58.4 -39.92,-96.6 11.57,-28.3 39.34,-45.7 68.26,-45.7 9.26,0 19.09,1.8 28.35,5.8" />
         <path
            id="path158"
            style="fill:#1c1918;fill-opacity:1;fill-rule:nonzero;stroke:none"
            d="m 6163.17,4903.8 c -267.84,267.3 -638.07,400.4 -1016.98,377.8 -41.07,-3.5 -71.73,-38.8 -68.84,-79.3 2.89,-41.6 45.71,-75.7 79.26,-68.8 337.83,29.5 664.1,-97.2 901.28,-334.9 449.48,-448.9 449.48,-1180.7 0,-1629.6 -217.51,-218.1 -507.34,-338.4 -815.09,-338.4 -308.33,0 -597.58,120.3 -815.66,338.4 -217.51,217.5 -337.84,506.7 -337.84,815.1 0,307.7 120.33,597.5 338.41,815 54.96,55.6 115.7,105.3 179.92,147.6 34.13,22.5 43.96,68.2 21.4,102.3 -22.56,34.8 -68.84,43.4 -102.39,21.5 -72.89,-48.1 -141.15,-103.6 -204.21,-166.1 -245.85,-246.4 -381.22,-573.3 -381.22,-920.3 0,-347.7 135.37,-674.6 381.22,-919.8 245.86,-246.5 572.7,-381.8 920.37,-381.8 347.09,0 673.93,135.3 920.37,381.2 506.75,507.3 506.75,1332.8 0,1840.1" />
         <path
            id="path160"
            style="fill:#1c1918;fill-opacity:1;fill-rule:nonzero;stroke:none"
            d="m 7740.69,1485.6 c -118,-119.8 -312.96,-118.6 -432.12,-0.6 l -862.53,863.1 120.22,120 c 0.19,0.2 0.51,0.2 0.69,0.3 0.18,0.2 0.11,0.6 0.29,0.8 l 190.32,190 c 0.07,0.1 0.22,0.1 0.29,0.1 0.07,0 0.04,0.3 0.11,0.3 l 120.79,120.6 861.94,-862.5 c 119.75,-119.2 119.75,-313 0,-432.1 z M 6346.8,2793.8 c 15.08,14.1 32.51,23.9 47.18,38.5 14.65,14.7 24.48,32.1 38.47,47.1 l 167.95,-167.9 -85.69,-85.6 z m -2150.48,143.8 c -577.33,576.7 -577.33,1515.6 0,2092.4 288.09,288.6 667,433.2 1046.48,433.2 378.91,0 757.82,-144.6 1045.9,-433.2 577.33,-576.8 577.33,-1515.7 0,-2092.4 -576.75,-577.4 -1516.79,-576.2 -2092.38,0 z m 2735.08,0 c -28.93,28.9 -75.78,28.9 -104.71,0 l -120.98,-120.9 -178.67,178.7 c 490.62,638.2 450.85,1555.4 -133.06,2139.8 -635.17,634.1 -1667.76,633.5 -2302.94,0 -634.6,-635.1 -634.6,-1667.7 0,-2302.9 317.59,-317 734.67,-475.5 1151.76,-475.5 349.95,0 696.57,118.7 987.98,342.4 l 178.6,-178.4 -120.1,-120.1 c -13.88,-13.8 -21.99,-32.9 -21.99,-52.6 0,-19.7 7.52,-38.2 21.41,-52.1 l 915.16,-915.7 c 88.51,-87.9 204.78,-132.5 321.06,-132.5 116.28,0 232.55,44.6 321.06,132.5 177.01,177.6 177.01,465.1 0,642.7 l -914.58,914.6" />
         <g
            transform="scale(1.3434)"
            id="g162">
            <path
               id="path164"
               style="fill:#1c1918;fill-opacity:1;fill-rule:nonzero;stroke:none"
               d="M 15550.2,5180.14 H 8670.84 c -303.56,0 -550.47,246.84 -550.47,550.47 v 4753.89 h 771.92 c 54.64,0 98.93,44.4 98.93,99 0,54.7 -44.29,99 -98.93,99 h -771.92 v 1002.1 c 0,303.4 246.91,550.3 550.47,550.3 h 6879.36 c 304.4,0 551.9,-246.9 551.9,-550.3 V 10682.5 H 9956.54 c -54.64,0 -98.93,-44.3 -98.93,-99 0,-54.6 44.29,-99 98.93,-99 H 16102.1 V 5730.61 c 0,-303.63 -247.5,-550.47 -551.9,-550.47 z m 0,7252.66 H 8670.84 c -412.68,0 -748.32,-335.6 -748.32,-748.2 v -1098.5 c -0.08,-0.9 -0.52,-1.7 -0.52,-2.6 0,-0.9 0.44,-1.6 0.52,-2.6 V 5730.61 c 0,-412.76 335.64,-748.4 748.32,-748.4 h 6879.36 c 413.5,0 749.8,335.64 749.8,748.4 v 5953.99 c 0,412.6 -336.3,748.2 -749.8,748.2" />
         </g>
         <path
            id="path166"
            style="fill:#1c1918;fill-opacity:1;fill-rule:nonzero;stroke:none"
            d="m 12869.7,14084.9 c 73.4,0 132.9,59.6 132.9,133 0,73.4 -59.5,132.9 -132.9,132.9 h -369.2 c -73.4,0 -132.9,-59.5 -132.9,-132.9 0,-73.4 59.5,-133 132.9,-133 h 369.2" />
         <g
            transform="scale(1.27138)"
            id="g168">
            <path
               id="path170"
               style="fill:#1c1918;fill-opacity:1;fill-rule:nonzero;stroke:none"
               d="m 15715.7,12249.7 h 375.2 v -375.2 h -375.2 z m -104.6,-584.3 h 584.3 c 57.7,0 104.6,46.8 104.6,104.5 v 584.4 c 0,57.7 -46.9,104.5 -104.6,104.5 h -584.3 c -57.8,0 -104.6,-46.8 -104.6,-104.5 v -584.4 c 0,-57.7 46.8,-104.5 104.6,-104.5" />
         </g>
         <g
            transform="scale(1.17928)"
            id="g172">
            <path
               id="path174"
               style="fill:#1c1918;fill-opacity:1;fill-rule:nonzero;stroke:none"
               d="m 15670,13206.4 h 404.5 v -404.5 H 15670 Z m -112.7,-630 h 629.9 c 62.3,0 112.8,50.5 112.8,112.7 v 630 c 0,62.2 -50.5,112.7 -112.8,112.7 h -629.9 c -62.3,0 -112.7,-50.5 -112.7,-112.7 v -630 c 0,-62.2 50.4,-112.7 112.7,-112.7" />
         </g>
         <g
            transform="scale(1.08718)"
            id="g176">
            <path
               id="path178"
               style="fill:#1c1918;fill-opacity:1;fill-rule:nonzero;stroke:none"
               d="m 15616.7,14325.2 h 438.8 v -438.8 h -438.8 z m -122.3,-683.4 h 683.4 c 67.5,0 122.2,54.9 122.2,122.3 v 683.4 c 0,67.5 -54.7,122.2 -122.2,122.2 h -683.4 c -67.5,0 -122.2,-54.7 -122.2,-122.2 v -683.4 c 0,-67.4 54.7,-122.3 122.2,-122.3" />
         </g>
         <path
            id="path180"
            style="fill:#1c1918;fill-opacity:1;fill-rule:nonzero;stroke:none"
            d="m 16001.6,15335.5 c 0,73.4 -59.6,132.9 -133,132.9 h -3661.5 c -73.4,0 -132.9,-59.5 -132.9,-132.9 0,-73.4 59.5,-132.9 132.9,-132.9 h 3661.5 c 73.4,0 133,59.5 133,132.9" />
         <path
            id="path182"
            style="fill:#1c1918;fill-opacity:1;fill-rule:nonzero;stroke:none"
            d="m 13875.2,12364.9 v -1368.2 c 0,-73.4 59.5,-133 132.9,-133 h 1369.8 c -67,-696.6 -655.8,-1243.3 -1369.8,-1243.3 -758,0 -1374.7,617.4 -1374.7,1376.3 0,713.1 545.9,1301.3 1241.8,1368.2 z m -1507.6,-1368.2 c 0,-905.5 735.9,-1642.1 1640.5,-1642.1 905.4,0 1642.1,736.6 1642.1,1642.1 0,73.4 -59.5,132.9 -132.9,132.9 H 14141 v 1374.7 c 0,73.4 -59.5,132.9 -132.9,132.9 -904.6,0 -1640.5,-736 -1640.5,-1640.5" />
         <path
            id="path184"
            style="fill:#1c1918;fill-opacity:1;fill-rule:nonzero;stroke:none"
            d="m 14674.2,12810 c 604.4,-62.2 1086.4,-543.5 1148.7,-1147.4 h -1148.7 z m -133,-1413.3 h 1421.4 c 73.4,0 133,59.5 133,132.9 0,856.3 -697.2,1553 -1554.4,1553 -73.4,0 -132.9,-59.6 -132.9,-133 v -1420 c 0,-73.4 59.5,-132.9 132.9,-132.9" />
         <g
            transform="scale(1.23998)"
            id="g186">
            <path
               id="path188"
               style="fill:#1c1918;fill-opacity:1;fill-rule:nonzero;stroke:none"
               d="m 12668,6348.11 c -143.1,0 -259.4,116.05 -260.4,259.04 0,0.64 0.3,1.21 0.3,1.85 0,0.65 -0.3,1.21 -0.3,1.86 1,142.74 117.4,258.63 260.4,258.63 143.8,0 260.7,-116.94 260.7,-260.57 0,-143.79 -116.9,-260.81 -260.7,-260.81 z m 3524.8,368.15 h -3062.9 c -49,210.17 -237,367.67 -461.9,367.67 -224.9,0 -412.8,-157.5 -461.7,-367.67 h -2156.9 c -59.2,0 -107.19,-48.07 -107.19,-107.26 0,-59.11 47.99,-107.18 107.19,-107.18 h 2156.8 c 48.8,-210.41 236.9,-368.07 461.8,-368.07 225.1,0 413.1,157.66 461.9,368.07 h 3062.9 c 59.2,0 107.2,48.07 107.2,107.18 0,59.19 -48,107.26 -107.2,107.26" />
         </g>
         <g
            transform="scale(1.24859)"
            id="g190">
            <path
               id="path192"
               style="fill:#1c1918;fill-opacity:1;fill-rule:nonzero;stroke:none"
               d="m 14803.9,10011.1 c -115.6,0 -209.7,93.7 -210.5,209.2 0,0.7 0.4,1.2 0.4,2 0,0.5 -0.4,1.1 -0.4,1.6 1.2,115.2 95.1,208.7 210.5,208.7 115.5,0 209.4,-93.5 210.6,-208.7 -0.1,-0.5 -0.4,-1.1 -0.4,-1.6 0,-0.8 0.4,-1.3 0.4,-2 -0.9,-115.5 -94.9,-209.2 -210.6,-209.2 z m 1389.7,317.6 h -981.4 c -47.6,181.7 -211.8,316.8 -408.3,316.8 -196.4,0 -360.6,-135.1 -408.3,-316.8 h -443.4 c -58.8,0 -106.5,-47.7 -106.5,-106.4 0,-58.8 47.7,-106.5 106.5,-106.5 h 443.2 c 47.4,-182.1 211.8,-317.62 408.5,-317.62 196.8,0 361.2,135.52 408.6,317.62 h 981.1 c 58.7,0 106.4,47.7 106.4,106.5 0,58.7 -47.7,106.4 -106.4,106.4" />
         </g>
         <g
            transform="scale(1.24859)"
            id="g194">
            <path
               id="path196"
               style="fill:#1c1918;fill-opacity:1;fill-rule:nonzero;stroke:none"
               d="m 15389.9,8802.98 c -116.2,0 -210.7,94.59 -210.7,210.72 0,116.21 94.5,210.71 210.7,210.71 115.9,0 210.3,-94.1 210.7,-209.99 0,-0.08 -0.1,-0.16 -0.1,-0.33 0,-0.16 0.2,-0.39 0.2,-0.56 -0.2,-116.13 -94.6,-210.55 -210.8,-210.55 z m 803.7,317.64 h -395.4 c -47.7,181.64 -211.8,316.75 -408.3,316.75 -196.4,0 -360.6,-135.11 -408.3,-316.75 h -1029.4 c -58.8,0 -106.5,-47.74 -106.5,-106.53 0,-58.78 47.7,-106.43 106.5,-106.43 h 1029.1 c 47.5,-182.13 211.9,-317.64 408.6,-317.64 196.7,0 361.2,135.51 408.6,317.64 h 395.1 c 58.7,0 106.4,47.65 106.4,106.43 0,58.79 -47.7,106.53 -106.4,106.53" />
         </g>
         <g
            transform="scale(1.24859)"
            id="g198">
            <path
               id="path200"
               style="fill:#1c1918;fill-opacity:1;fill-rule:nonzero;stroke:none"
               d="m 14631.3,7594.81 c -116.1,0 -210.7,94.59 -210.7,210.72 0,116.29 94.6,210.88 210.7,210.88 116,0 210.3,-94.19 210.7,-210.24 0,-0.08 0,-0.24 0,-0.32 0,-0.24 0,-0.4 0,-0.56 -0.1,-116.05 -94.6,-210.48 -210.7,-210.48 z m 1562.3,317.48 h -1153.9 c -47.7,181.89 -211.8,317.08 -408.4,317.08 -196.4,0 -360.7,-135.19 -408.3,-317.08 h -270.8 c -58.8,0 -106.5,-47.65 -106.5,-106.44 0,-58.78 47.7,-106.52 106.5,-106.52 h 270.7 c 47.4,-182.04 211.7,-317.4 408.4,-317.4 196.7,0 361.1,135.36 408.6,317.4 h 1153.7 c 58.7,0 106.4,47.74 106.4,106.52 0,58.79 -47.7,106.44 -106.4,106.44" />
         </g>
      </g>
   </g>
</svg>