<?xml version="1.0" standalone="no"?>
<!DOCTYPE svg PUBLIC "-//W3C//DTD SVG 20010904//EN"
 "http://www.w3.org/TR/2001/REC-SVG-20010904/DTD/svg10.dtd">
<svg version="1.0" xmlns="http://www.w3.org/2000/svg"
 viewBox="0 0 409.6000000 409.6000000"
 preserveAspectRatio="xMidYMid meet" width="409.6px" height="409.6px">
<g transform="scale(0.1)">
<g transform="translate(0.000000,4096.000000) scale(0.100000,-0.100000)"
fill="#000000" stroke="none">
<!-- <path d="M26480 39784 c-121 -32 -186 -77 -945 -660 -412 -317 -890 -684
-1062 -816 -334 -256 -376 -297 -438 -423 -88 -180 -86 -378 5 -560 31 -62
1171 -1555 5115 -6695 2792 -3638 5102 -6642 5135 -6675 114 -118 244 -175
414 -183 152 -7 252 18 371 93 28 17 507 381 1065 809 650 498 1041 804 1087
851 54 55 81 94 111 156 52 110 66 173 65 294 -3 362 -305 642 -672 622 -123
-6 -213 -36 -311 -102 -41 -28 -410 -308 -819 -623 l-744 -571 -37 47 c-168
215 -9302 12126 -9305 12135 -4 11 963 759 998 773 10 3 1229 -1579 4032
-5233 2210 -2881 4040 -5264 4067 -5296 135 -164 298 -241 508 -240 86 0 120
5 187 27 378 122 555 561 366 908 -56 102 -8541 11155 -8615 11223 -69 62
-176 118 -268 139 -81 19 -237 19 -310 0z"/> -->
<!-- <path d="M20432 34150 c-29 -6 -87 -23 -130 -40 -158 -62 -130 -31 -1066
-1175 -570 -696 -866 -1066 -887 -1106 -122 -243 -80 -535 106 -726 75 -78
12900 -10577 13000 -10644 126 -83 332 -120 480 -85 114 27 208 79 291 159 40
40 445 526 899 1081 613 750 834 1027 859 1078 71 141 86 343 37 488 -66 194
-225 347 -426 410 -105 34 -262 32 -370 -4 -94 -30 -162 -68 -226 -125 -26
-22 -327 -383 -669 -801 -342 -418 -623 -760 -626 -760 -5 0 -11836 9680
-11868 9710 -18 17 -6 33 384 509 221 270 405 491 410 491 5 0 2282 -1861
5062 -4136 2779 -2275 5073 -4147 5097 -4162 113 -66 268 -98 399 -82 439 56
689 517 496 917 -26 56 -57 97 -113 154 -54 55 -9998 8205 -10616 8700 -78 63
-162 108 -245 133 -68 20 -207 28 -278 16z"/> -->
<!-- <path d="M15828 27115 c-140 -35 -275 -123 -356 -231 -37 -50 -178 -344 -602
-1252 -305 -653 -565 -1216 -578 -1252 -34 -90 -42 -251 -17 -353 36 -153 136
-297 263 -380 37 -25 2736 -1288 6132 -2872 3336 -1555 6745 -3145 7575 -3532
831 -388 1535 -711 1565 -719 150 -39 301 -24 447 47 94 45 191 129 247 213
50 76 1151 2440 1172 2517 23 84 23 233 1 317 -64 239 -250 417 -490 466 -96
20 -158 20 -255 0 -159 -32 -313 -133 -399 -262 -21 -31 -224 -456 -452 -944
l-414 -886 -51 22 c-28 13 -521 243 -1096 511 -575 268 -1443 673 -1930 900
-487 227 -1553 724 -2370 1105 -817 381 -1618 754 -1780 830 -464 217 -3877
1808 -5345 2492 -731 341 -1334 624 -1339 628 -5 5 104 251 258 582 148 315
270 575 272 577 2 2 385 -174 851 -392 466 -217 1388 -647 2048 -955 660 -308
2804 -1308 4765 -2222 1961 -914 3724 -1736 3918 -1827 215 -100 383 -172 429
-184 284 -72 592 71 722 336 46 93 65 177 64 285 -1 243 -127 451 -343 564
-53 28 -2243 1050 -5625 2626 -280 131 -679 317 -885 413 -1969 918 -5620
2620 -5790 2700 -118 55 -240 108 -270 119 -73 27 -260 34 -342 13z"/> -->
<!-- <path d="M13035 19515 c-203 -42 -394 -204 -465 -392 -36 -96 -593 -2619 -597
-2708 -14 -243 129 -486 347 -594 80 -39 146 -55 1215 -291 1498 -332 2515
-558 9380 -2081 6289 -1395 5932 -1319 6080 -1285 97 23 219 85 287 146 74 66
149 178 176 266 12 38 149 638 304 1334 274 1231 282 1268 282 1375 0 186 -54
315 -189 451 -127 128 -262 184 -445 184 -108 0 -185 -17 -279 -61 -146 -68
-265 -200 -320 -354 -12 -33 -115 -484 -229 -1003 -115 -518 -211 -944 -213
-947 -3 -2 -1517 331 -3365 740 -1847 410 -3885 862 -4529 1005 -1381 306
-4365 968 -5960 1321 -621 138 -1133 253 -1136 255 -5 3 266 1243 273 1249 3
2 1949 -429 7133 -1579 732 -163 2336 -519 3565 -791 1229 -273 2267 -499
2305 -502 100 -8 218 17 323 68 210 101 352 331 352 569 0 237 -141 465 -350
569 -78 38 -134 52 -695 177 -335 74 -3177 704 -6315 1400 -3138 696 -5928
1315 -6200 1375 -536 119 -611 130 -735 104z"/> -->
<path d="M5625 15344 c-244 -52 -438 -249 -489 -497 -20 -96 -20 -158 0 -254
41 -199 166 -360 349 -448 137 -66 117 -65 1210 -65 l985 0 0 -4825 c0 -4363
2 -4833 16 -4902 52 -253 247 -448 499 -498 73 -14 1172 -15 12320 -13 l12240
3 82 28 c93 31 212 106 268 168 61 67 114 157 143 243 l27 81 3 2640 c2 2379
1 2648 -13 2719 -41 200 -166 362 -350 451 -77 37 -196 65 -275 65 -79 0 -198
-28 -275 -65 -183 -88 -308 -249 -349 -448 -14 -68 -16 -314 -16 -2342 l0
-2265 -11520 0 -11520 0 0 4825 c0 4350 -2 4833 -16 4903 -51 250 -245 444
-497 496 -67 14 -231 16 -1414 15 -1143 -1 -1348 -3 -1408 -15z" fill="#2f2f41"/>
<path d="M32505 15344 c-192 -41 -363 -179 -446 -359 -32 -71 -59 -192 -59
-265 0 -28 7 -85 16 -127 41 -199 166 -360 349 -448 137 -66 117 -65 1210 -65
l985 0 0 -5760 0 -5760 -14080 0 -14080 0 0 3545 c0 3195 -2 3553 -16 3622
-41 199 -166 360 -349 448 -77 37 -196 65 -275 65 -79 0 -198 -28 -275 -65
-183 -88 -308 -249 -349 -448 -14 -69 -16 -457 -16 -3967 0 -3510 2 -3898 16
-3967 52 -253 247 -448 499 -498 73 -14 1395 -15 14880 -13 l14800 3 82 28
c93 31 212 106 268 168 61 67 114 157 143 243 l27 81 3 6480 c2 5888 1 6487
-13 6560 -50 252 -245 447 -498 499 -67 14 -231 16 -1414 15 -1143 -1 -1348
-3 -1408 -15z" fill="#2f2f41"/>
<path d="M5635 12786 c-241 -57 -416 -217 -487 -446 -34 -109 -32 -264 5 -376
65 -198 224 -353 427 -416 109 -34 264 -32 376 5 198 65 353 225 416 427 18
58 23 99 23 180 0 81 -5 122 -23 180 -63 203 -220 363 -416 426 -100 32 -234
40 -321 20z" fill="#2f2f41"/>
<path d="M32515 12786 c-241 -57 -416 -217 -487 -446 -34 -109 -32 -264 5
-376 65 -198 224 -353 427 -416 109 -34 264 -32 376 5 198 65 353 225 416 427
18 58 23 99 23 180 0 81 -5 122 -23 180 -63 203 -220 363 -416 426 -100 32
-234 40 -321 20z" fill="#2f2f41"/>
<path d="M12025 11504 c-192 -41 -363 -179 -446 -359 -61 -134 -59 -85 -59
-1545 0 -1175 2 -1340 16 -1407 52 -253 247 -448 499 -498 73 -14 839 -15
8480 -13 l8400 3 81 27 c86 29 176 82 243 143 62 56 137 175 168 268 l28 82 3
1360 c3 1511 5 1448 -63 1590 -89 183 -249 308 -448 349 -96 20 -158 20 -254
0 -199 -41 -360 -166 -448 -349 -66 -137 -65 -117 -65 -1210 l0 -985 -7680 0
-7680 0 0 640 0 640 6723 0 c5864 0 6731 2 6792 15 232 48 432 240 490 470 8
32 15 102 15 155 0 53 -7 123 -15 155 -53 207 -213 378 -422 452 l-78 28
-7105 2 c-6256 1 -7113 0 -7175 -13z" fill="#6D6C6C" opacity="0.4"/>
<path transform="translate(0,4500)" d="M12025 11504 c-192 -41 -363 -179 -446 -359 -61 -134 -59 -85 -59
-1545 0 -1175 2 -1340 16 -1407 52 -253 247 -448 499 -498 73 -14 839 -15
8480 -13 l8400 3 81 27 c86 29 176 82 243 143 62 56 137 175 168 268 l28 82 3
1360 c3 1511 5 1448 -63 1590 -89 183 -249 308 -448 349 -96 20 -158 20 -254
0 -199 -41 -360 -166 -448 -349 -66 -137 -65 -117 -65 -1210 l0 -985 -7680 0
-7680 0 0 640 0 640 6723 0 c5864 0 6731 2 6792 15 232 48 432 240 490 470 8
32 15 102 15 155 0 53 -7 123 -15 155 -53 207 -213 378 -422 452 l-78 28
-7105 2 c-6256 1 -7113 0 -7175 -13z" fill="#E5261F"/>
<path transform="translate(0,9000)" d="M12025 11504 c-192 -41 -363 -179 -446 -359 -61 -134 -59 -85 -59
-1545 0 -1175 2 -1340 16 -1407 52 -253 247 -448 499 -498 73 -14 839 -15
8480 -13 l8400 3 81 27 c86 29 176 82 243 143 62 56 137 175 168 268 l28 82 3
1360 c3 1511 5 1448 -63 1590 -89 183 -249 308 -448 349 -96 20 -158 20 -254
0 -199 -41 -360 -166 -448 -349 -66 -137 -65 -117 -65 -1210 l0 -985 -7680 0
-7680 0 0 640 0 640 6723 0 c5864 0 6731 2 6792 15 232 48 432 240 490 470 8
32 15 102 15 155 0 53 -7 123 -15 155 -53 207 -213 378 -422 452 l-78 28
-7105 2 c-6256 1 -7113 0 -7175 -13z" fill="#6D6C6C" opacity="0.4"/>
<path transform="translate(0,13500)" d="M12025 11504 c-192 -41 -363 -179 -446 -359 -61 -134 -59 -85 -59
-1545 0 -1175 2 -1340 16 -1407 52 -253 247 -448 499 -498 73 -14 839 -15
8480 -13 l8400 3 81 27 c86 29 176 82 243 143 62 56 137 175 168 268 l28 82 3
1360 c3 1511 5 1448 -63 1590 -89 183 -249 308 -448 349 -96 20 -158 20 -254
0 -199 -41 -360 -166 -448 -349 -66 -137 -65 -117 -65 -1210 l0 -985 -7680 0
-7680 0 0 640 0 640 6723 0 c5864 0 6731 2 6792 15 232 48 432 240 490 470 8
32 15 102 15 155 0 53 -7 123 -15 155 -53 207 -213 378 -422 452 l-78 28
-7105 2 c-6256 1 -7113 0 -7175 -13z" fill="#6D6C6C" opacity="0.4"/>
<path transform="translate(0,18000)" d="M12025 11504 c-192 -41 -363 -179 -446 -359 -61 -134 -59 -85 -59
-1545 0 -1175 2 -1340 16 -1407 52 -253 247 -448 499 -498 73 -14 839 -15
8480 -13 l8400 3 81 27 c86 29 176 82 243 143 62 56 137 175 168 268 l28 82 3
1360 c3 1511 5 1448 -63 1590 -89 183 -249 308 -448 349 -96 20 -158 20 -254
0 -199 -41 -360 -166 -448 -349 -66 -137 -65 -117 -65 -1210 l0 -985 -7680 0
-7680 0 0 640 0 640 6723 0 c5864 0 6731 2 6792 15 232 48 432 240 490 470 8
32 15 102 15 155 0 53 -7 123 -15 155 -53 207 -213 378 -422 452 l-78 28
-7105 2 c-6256 1 -7113 0 -7175 -13z" fill="#6D6C6C" opacity="0.4"/>
</g>
</g>
</svg>
