<?xml version="1.0" encoding="UTF-8"?>
<svg xmlns="http://www.w3.org/2000/svg" xmlns:xlink="http://www.w3.org/1999/xlink" width="127.664" height="61.005" viewBox="0 0 95.748 45.754">
   <title>logo</title>
   <symbol id="a">
      <path d="M.123.148 0 .012.012 0l.111.108L.234 0l.012.012-.123.136z"/>
   </symbol>
   <use xlink:href="#a" transform="matrix(49.5742 0 0 -49.5742 9.524 7.358)" fill="#2f2f41"/>
   <symbol id="b">
      <path d="M.235.543c.006.026.017.069.017.076C.252.64.236.663.205.663.153.663.14.613.137.601L.004.07C0 .054 0 .048 0 .044 0 .012.026 0 .047 0a.07.07 0 0 1 .06.039c.006.012.039.149.046.18C.194.203.239.203.252.203c.034 0 .08.006.14.06.024-.046.08-.06.117-.06.037 0 .066.021.087.057a.32.32 0 0 1 .038.099C.634.373.619.373.61.373c-.011 0-.015 0-.02-.005C.588.366.588.364.582.339c-.02-.08-.043-.1-.068-.1-.011 0-.023.004-.023.037 0 .017.004.033.014.073l.026.102.022.09a.73.73 0 0 1 .016.07c0 .021-.016.044-.047.044A.07.07 0 0 1 .456.602L.387.325C.383.307.366.29.348.275A.135.135 0 0 0 .259.239C.191.239.185.288.185.318c0 .027.006.051.01.069l.04.156z"/>
   </symbol>
   <use xlink:href="#b" transform="matrix(49.5742 0 0 -49.5742 .074 45.578)" fill="#e5261f"/>
   <symbol id="c">
      <path d="M.227.57c0 .031-.006.041-.04.041H.04c-.014 0-.04 0-.04-.029S.026.553.04.553h.122V.058H.04c-.014 0-.04 0-.04-.029S.026 0 .04 0h.309c.014 0 .04 0 .04.029S.363.058.349.058H.227V.57z"/>
   </symbol>
   <symbol id="d">
      <path d="M.358.29c0 .076-.057.156-.192.156-.042 0-.139 0-.139-.069A.04.04 0 0 1 .068.335c.006 0 .039.002.04.044 0 .005.001.006.022.008a.457.457 0 0 0 .037.001c.023 0 .057 0 .09-.025C.293.335.293.307.293.278A.63.63 0 0 1 .114.252C.064.235 0 .199 0 .131 0 .06.063 0 .156 0 .188 0 .25.005.302.041.322.008.372.006.41.006c.024 0 .048 0 .048.029S.432.064.418.064a.16.16 0 0 0-.06.008V.29M.293.138c0-.023 0-.044-.041-.063C.217.058.17.058.167.058.108.058.065.09.065.131c0 .059.107.093.228.093V.138z"/>
   </symbol>
   <symbol id="e">
      <path d="M.181.189c0 .119.084.19.169.19L.366.378C.369.342.397.339.404.339c.023 0 .039.017.039.039 0 .043-.042.059-.092.059a.215.215 0 0 1-.17-.086V.39c0 .031-.006.041-.04.041H.04c-.014 0-.04 0-.04-.029S.026.373.04.373h.076V.058H.04c-.014 0-.04 0-.04-.029S.026 0 .04 0h.246c.014 0 .04 0 .04.029S.3.058.286.058H.181v.131z"/>
   </symbol>
   <symbol id="f">
      <path d="M.161.29C.149.29.103.29.103.344c0 .019.003.023.007.031a.16.16 0 0 1 .223.221c.026.014.05.017.065.018A.038.038 0 0 1 .434.582C.446.582.471.59.471.62.471.639.456.672.4.672A.174.174 0 0 1 .295.635.166.166 0 0 1 .2.666.16.16 0 0 1 .039.507c0-.022.005-.06.033-.096A.118.118 0 0 1 .075.269.142.142 0 0 1 0 .146C0 .063.101 0 .228 0s.228.062.228.146C.456.29.279.29.246.29H.161m.038.114c-.05 0-.095.044-.095.103S.15.61.199.61C.252.61.295.564.295.507.295.45.252.404.199.404M.228.056C.13.056.057.1.057.146c0 .015.005.05.042.073.023.015.033.015.102.015.088 0 .198 0 .198-.088C.399.1.326.056.228.056z"/>
   </symbol>
   <symbol id="g">
      <path d="M.36.198c.021 0 .04 0 .04.037C.4.352.334.446.209.446.093.446 0 .346 0 .224 0 .098.101 0 .224 0 .353 0 .4.089.4.115.4.121.398.143.367.143.348.143.342.136.336.121.311.063.246.058.227.058a.163.163 0 0 0-.16.14H.36M.068.253c.013.085.078.135.141.135.1 0 .121-.085.125-.135H.068z"/>
   </symbol>
   <use xlink:href="#c" transform="matrix(24.7871 0 0 -24.7871 34.744 21.225)"/>
   <use xlink:href="#d" transform="matrix(24.7871 0 0 -24.7871 47.335 21.374)"/>
   <use xlink:href="#e" transform="matrix(24.7871 0 0 -24.7871 59.58 21.225)"/>
   <use xlink:href="#f" transform="matrix(24.7871 0 0 -24.7871 72.197 26.901)"/>
   <use xlink:href="#g" transform="matrix(24.7871 0 0 -24.7871 85.632 21.374)"/>
   <symbol id="h">
      <path d="M.403.293c0 .098-.046.144-.128.144A.175.175 0 0 1 .146.38c0 .037 0 .051-.04.051H.04c-.014 0-.04 0-.04-.029S.026.373.04.373h.041V.058H.04c-.014 0-.04 0-.04-.029S.026 0 .04 0h.147c.014 0 .04 0 .04.029S.201.058.187.058H.146v.181c0 .097.068.14.122.14.058 0 .07-.033.07-.09V.058H.297c-.014 0-.04 0-.04-.029S.283 0 .297 0h.147c.014 0 .04 0 .04.029S.458.058.444.058H.403v.235z"/>
   </symbol>
   <symbol id="i">
      <path d="M.403.396c0 .031-.006.041-.04.041H.297c-.014 0-.04 0-.04-.029S.283.379.297.379h.041V.162C.338.08.27.058.225.058.146.058.146.094.146.125v.271c0 .031-.006.041-.04.041H.04c-.014 0-.04 0-.04-.029S.026.379.04.379h.041V.12c0-.092.06-.12.137-.12.061 0 .099.025.119.042 0-.036.024-.036.041-.036h.066c.014 0 .04 0 .04.029S.458.064.444.064H.403v.332z"/>
   </symbol>
   <symbol id="j">
      <path d="M.454.303c0 .022 0 .134-.088.134A.117.117 0 0 1 .27.384C.264.399.242.437.194.437A.119.119 0 0 1 .11.399C.109.431.088.431.07.431H.04c-.014 0-.04 0-.04-.029S.023.373.054.373V.058C.022.058 0 .058 0 .029S.026 0 .04 0h.084c.014 0 .04 0 .04.029S.141.058.11.058v.184c0 .084.036.137.08.137.028 0 .036-.035.036-.082V.058c-.017 0-.044 0-.044-.029S.209 0 .223 0h.073c.014 0 .04 0 .04.029S.313.058.282.058v.184c0 .084.036.137.08.137C.39.379.398.344.398.297V.058c-.017 0-.044 0-.044-.029S.381 0 .395 0h.073c.014 0 .04 0 .04.029S.485.058.454.058v.245z"/>
   </symbol>
   <symbol id="k">
      <path d="M.146.576c0 .031-.006.041-.04.041H.04c-.014 0-.04 0-.04-.029S.026.559.04.559h.041V.047c0-.018 0-.041.033-.041.032 0 .032.021.032.05A.153.153 0 0 1 .263 0c.106 0 .199.095.199.222 0 .123-.084.221-.188.221A.18.18 0 0 1 .146.389v.187m0-.304c0 .057.056.113.121.113.072 0 .13-.073.13-.163C.397.126.329.058.258.058.183.058.146.143.146.193v.079z"/>
   </symbol>
   <symbol id="l">
      <path d="M.349.408c0 .016 0 .038-.028.038-.024 0-.03-.023-.03-.024C.251.446.205.446.185.446.022.446 0 .363 0 .329 0 .288.024.26.058.241A.404.404 0 0 1 .201.205C.24.198.32.185.32.13.32.093.286.058.193.058.129.058.087.083.066.155.061.169.058.18.033.18 0 .18 0 .161 0 .141V.038C0 .022 0 0 .028 0 .04 0 .049 0 .064.041A.195.195 0 0 1 .193 0c.185 0 .185.12.185.13 0 .104-.124.125-.172.132C.118.277.058.287.058.329c0 .027.031.059.125.059.095 0 .099-.045.101-.071.002-.02.02-.023.032-.023.033 0 .033.018.033.038v.076z"/>
   </symbol>
   <use xlink:href="#h" transform="matrix(14.3462 0 0 -14.3462 34.745 35.5)"/>
   <use xlink:href="#i" transform="matrix(14.3462 0 0 -14.3462 43.826 35.586)"/>
   <use xlink:href="#j" transform="matrix(14.3462 0 0 -14.3462 52.692 35.5)"/>
   <use xlink:href="#k" transform="matrix(14.3462 0 0 -14.3462 62.003 35.586)"/>
   <use xlink:href="#g" transform="matrix(14.3462 0 0 -14.3462 71.672 35.586)"/>
   <use xlink:href="#e" transform="matrix(14.3462 0 0 -14.3462 80.467 35.5)"/>
   <use xlink:href="#l" transform="matrix(14.3462 0 0 -14.3462 90.064 35.586)"/>
</svg>