<?xml version="1.0" encoding="UTF-8"?>
<svg xmlns="http://www.w3.org/2000/svg" xmlns:xlink="http://www.w3.org/1999/xlink" width="233.947" height="324.951" viewBox="0 0 175.46 243.713">
   <title>logo-mobile</title>
   <symbol id="a">
      <path d="M.123.148 0 .012.012 0l.111.108L.234 0l.012.012-.123.136z"/>
   </symbol>
   <use xlink:href="#a" transform="matrix(247.871 0 0 -247.871 57.164 46.755)" fill="#2f2f41"/>
   <symbol id="b">
      <path d="M.235.543c.006.026.017.069.017.076C.252.64.236.663.205.663.153.663.14.613.137.601L.004.07C0 .054 0 .048 0 .044 0 .012.026 0 .047 0a.07.07 0 0 1 .06.039c.006.012.039.149.046.18C.194.203.239.203.252.203c.034 0 .08.006.14.06.024-.046.08-.06.117-.06.037 0 .066.021.087.057a.32.32 0 0 1 .038.099C.634.373.619.373.61.373c-.011 0-.015 0-.02-.005C.588.366.588.364.582.339c-.02-.08-.043-.1-.068-.1-.011 0-.023.004-.023.037 0 .017.004.033.014.073l.026.102.022.09a.73.73 0 0 1 .016.07c0 .021-.016.044-.047.044A.07.07 0 0 1 .456.602L.387.325C.383.307.366.29.348.275A.135.135 0 0 0 .259.239C.191.239.185.288.185.318c0 .027.006.051.01.069l.04.156z"/>
   </symbol>
   <use xlink:href="#b" transform="matrix(247.871 0 0 -247.871 9.915 237.854)" fill="#e5261f"/>
</svg>