<?xml version="1.0" standalone="no"?>
<!DOCTYPE svg PUBLIC "-//W3C//DTD SVG 20010904//EN"
 "http://www.w3.org/TR/2001/REC-SVG-20010904/DTD/svg10.dtd">
<svg version="1.0" xmlns="http://www.w3.org/2000/svg"
 width="2481.000000pt" height="690.000000pt" viewBox="0 0 2481.000000 690.000000"
 preserveAspectRatio="xMidYMid meet">

<g transform="translate(0.000000,690.000000) scale(0.100000,-0.100000)"
fill="#E5261F" stroke="none">
<path d="M3067 6590 l-27 -21 0 -333 0 -333 23 -21 c13 -12 33 -22 46 -22 25
0 526 301 554 332 9 11 17 33 17 48 0 15 -8 34 -17 43 -27 24 -523 317 -547
323 -14 3 -32 -3 -49 -16z"/>
<path d="M2535 6437 c-159 -99 -265 -172 -273 -187 -29 -52 -13 -66 275 -233
166 -97 280 -157 296 -157 15 0 37 10 49 22 21 21 21 23 15 351 -5 292 -8 331
-23 348 -36 40 -66 27 -339 -144z"/>
<path d="M3725 6050 c-11 -5 -135 -78 -275 -163 -187 -114 -257 -161 -264
-179 -21 -58 -12 -66 274 -236 154 -92 281 -162 295 -162 14 0 34 9 45 20 19
19 20 33 20 349 0 299 -2 331 -17 349 -22 25 -52 33 -78 22z"/>
<path d="M2152 6034 c-22 -15 -22 -15 -22 -354 l0 -339 27 -21 c18 -14 35 -19
50 -15 13 3 142 78 288 167 284 172 295 182 264 237 -17 30 -532 341 -564 341
-11 0 -31 -7 -43 -16z"/>
<path d="M2558 5341 c-142 -87 -264 -164 -273 -171 -18 -15 -20 -70 -2 -92 16
-21 539 -328 559 -328 8 0 27 9 42 21 l27 21 -3 335 -3 335 -24 19 c-13 10
-33 19 -45 19 -11 0 -137 -72 -278 -159z"/>
<path d="M3067 5482 c-15 -17 -17 -55 -17 -344 0 -462 -18 -451 352 -222 139
86 261 163 271 172 25 22 22 74 -5 99 -13 11 -136 86 -275 166 -260 152 -293
165 -326 129z"/>
<path d="M4419 5329 c-140 -84 -264 -161 -276 -172 -28 -25 -30 -70 -5 -95 26
-26 516 -320 546 -328 19 -4 31 0 50 20 l26 25 0 331 c0 317 -1 331 -20 350
-11 11 -31 20 -44 20 -13 0 -138 -68 -277 -151z"/>
<path d="M4909 5453 c-22 -28 -22 -29 -16 -352 5 -295 7 -326 24 -342 38 -36
55 -32 174 40 468 284 476 290 433 347 -26 36 -531 334 -566 334 -17 0 -34
-10 -49 -27z"/>
<path d="M1193 5444 l-26 -26 6 -211 c4 -115 7 -261 7 -324 0 -100 2 -115 20
-133 11 -11 31 -20 45 -20 21 0 497 285 548 328 22 20 22 74 0 94 -35 29 -540
318 -557 318 -9 0 -29 -12 -43 -26z"/>
<path d="M674 5297 c-162 -102 -264 -173 -273 -189 -28 -50 -11 -63 283 -233
248 -142 280 -157 304 -149 15 5 32 21 37 34 7 17 9 130 5 342 -5 291 -7 318
-24 337 -11 12 -31 21 -46 21 -17 0 -119 -58 -286 -163z"/>
<path d="M1608 4771 c-136 -87 -257 -166 -268 -176 -31 -28 -26 -70 13 -98 43
-32 530 -307 544 -307 6 0 22 9 37 21 26 20 26 22 26 153 0 73 -3 222 -7 331
-10 298 -2 296 -345 76z"/>
<path d="M4023 4920 c-12 -5 -26 -18 -32 -29 -7 -13 -11 -132 -11 -339 0 -311
1 -320 21 -347 17 -21 29 -26 53 -23 18 2 143 72 293 163 279 169 295 183 269
236 -11 23 -505 330 -551 342 -11 3 -30 2 -42 -3z"/>
<path d="M5320 4770 c-281 -169 -302 -187 -281 -239 16 -36 531 -347 574 -345
62 3 62 0 62 370 l0 336 -24 19 c-13 10 -33 19 -45 19 -11 0 -140 -72 -286
-160z"/>
<path d="M280 4870 c-20 -20 -20 -28 -14 -338 4 -174 11 -327 15 -340 9 -23
53 -46 75 -38 23 9 509 318 528 336 21 21 24 63 6 85 -23 28 -537 315 -564
315 -14 0 -35 -9 -46 -20z"/>
<path d="M3072 4368 c-12 -6 -25 -21 -28 -32 -2 -12 -3 -167 -2 -345 l3 -324
27 -20 c17 -13 34 -18 50 -14 31 8 530 313 546 334 19 26 14 67 -10 90 -33 29
-534 323 -550 322 -7 0 -23 -5 -36 -11z"/>
<path d="M4950 4373 c-8 -3 -23 -12 -32 -21 -17 -14 -18 -43 -18 -349 0 -320
1 -334 20 -353 11 -11 31 -20 44 -20 24 0 512 284 554 323 24 23 29 64 10 89
-15 18 -517 323 -545 331 -10 3 -25 3 -33 0z"/>
<path d="M7370 3451 l0 -931 175 0 175 0 0 270 0 270 248 0 247 -1 180 -260
c99 -143 185 -265 191 -270 7 -5 89 -8 193 -7 l182 3 -204 290 c-112 160 -206
296 -210 302 -5 8 19 25 65 49 47 25 98 63 144 109 117 116 174 260 174 445 0
275 -140 487 -389 589 -151 63 -162 64 -688 68 l-483 4 0 -930z m890 625 c100
-19 160 -46 219 -101 74 -70 96 -127 96 -255 0 -92 -3 -112 -26 -161 -32 -68
-83 -121 -149 -154 -92 -47 -154 -55 -427 -55 l-253 0 0 370 0 370 233 0 c151
-1 258 -5 307 -14z"/>
<path d="M9250 3450 l0 -930 700 0 700 0 0 145 0 145 -525 0 -525 0 0 255 0
255 445 0 445 0 0 145 0 145 -445 0 -445 0 0 240 0 240 505 0 505 0 0 145 0
145 -680 0 -680 0 0 -930z"/>
<path d="M10960 3450 l0 -930 453 0 c268 0 489 5 542 11 437 54 760 343 824
739 16 98 13 299 -5 388 -80 387 -379 651 -809 712 -38 5 -280 10 -537 10
l-468 0 0 -930z m1010 615 c301 -80 470 -299 472 -610 1 -354 -209 -587 -573
-635 -47 -6 -188 -10 -319 -8 l-235 3 -3 638 -2 639 297 -5 c241 -3 310 -7
363 -22z"/>
<path d="M13090 3450 l0 -930 165 0 165 0 0 600 c0 330 3 600 8 600 4 -1 142
-223 307 -495 l300 -495 77 0 77 0 303 507 303 508 3 -613 2 -612 165 0 165 0
0 930 0 931 -147 -3 -146 -3 -356 -607 c-196 -334 -360 -606 -365 -605 -5 2
-172 275 -371 608 l-361 604 -147 3 -147 3 0 -931z"/>
<path d="M16109 4313 c-17 -38 -204 -455 -418 -928 l-387 -860 175 -3 c96 -1
178 1 182 5 4 5 150 342 325 751 174 408 320 742 323 742 3 0 150 -337 327
-748 l320 -747 183 -3 c110 -1 181 1 179 7 -1 5 -190 423 -418 930 l-415 920
-173 1 -173 0 -30 -67z"/>
<path d="M17490 3450 l0 -930 175 0 175 0 0 270 0 270 247 -2 248 -3 185 -267
185 -267 188 -1 c148 0 187 3 180 13 -4 6 -95 138 -203 292 -108 154 -199 285
-203 292 -5 8 17 25 63 48 140 74 245 200 293 350 32 101 32 309 0 410 -45
141 -149 271 -275 343 -72 42 -216 88 -311 101 -46 7 -260 11 -513 11 l-434 0
0 -930z m937 617 c122 -36 202 -99 246 -195 32 -69 31 -236 -1 -307 -29 -63
-93 -129 -154 -161 -90 -46 -153 -54 -425 -54 l-253 0 0 371 0 371 268 -5
c200 -3 280 -8 319 -20z"/>
<path d="M19370 3450 l0 -930 170 0 170 0 0 235 0 235 146 150 c81 83 150 150
153 150 4 0 152 -173 331 -385 l324 -385 204 0 c194 0 204 1 190 18 -129 150
-808 1007 -805 1015 4 9 562 609 735 790 l36 37 -196 0 -197 0 -453 -470
c-249 -258 -456 -470 -460 -470 -5 0 -8 212 -8 470 l0 470 -170 0 -170 0 0
-930z"/>
<path d="M21240 3450 l0 -930 700 0 700 0 0 145 0 145 -525 0 -525 0 0 255 0
255 445 0 445 0 0 145 0 145 -445 0 -445 0 0 240 0 240 505 0 505 0 0 145 0
145 -680 0 -680 0 0 -930z"/>
<path d="M22960 3451 l0 -931 170 0 170 0 0 270 0 270 248 0 247 0 188 -270
188 -270 185 0 c101 0 184 2 184 5 0 5 -304 442 -387 557 l-34 47 78 40 c135
70 240 193 284 330 30 92 37 282 15 383 -53 236 -224 398 -498 470 -79 21
-108 22 -560 25 l-478 4 0 -930z m950 611 c169 -55 250 -165 251 -339 2 -187
-91 -306 -275 -353 -69 -17 -111 -20 -333 -20 l-253 0 0 371 0 371 273 -4
c244 -4 279 -7 337 -26z"/>
<path d="M1235 4360 c-49 -18 -49 -19 -42 -368 l7 -327 26 -22 c14 -13 31 -23
38 -23 24 0 541 329 556 354 31 52 15 66 -265 228 -143 83 -269 154 -280 158
-11 4 -29 4 -40 0z"/>
<path d="M2540 4212 c-140 -87 -263 -170 -273 -184 -15 -21 -17 -32 -10 -54 8
-24 56 -56 279 -186 168 -98 279 -158 297 -158 15 0 37 10 49 22 21 21 21 23
15 351 -5 292 -8 331 -23 348 -36 40 -66 27 -334 -139z"/>
<path d="M4405 4211 c-161 -98 -266 -169 -275 -184 -31 -54 -16 -67 274 -238
172 -102 279 -159 297 -159 18 0 35 9 49 27 22 28 22 30 15 353 -6 271 -10
328 -23 343 -33 37 -67 23 -337 -142z"/>
<path d="M702 4201 c-139 -87 -261 -166 -272 -176 -25 -22 -26 -56 -2 -83 26
-30 533 -322 559 -322 13 0 32 9 43 20 19 19 20 33 19 303 -1 378 -8 418 -73
416 -12 0 -135 -71 -274 -158z"/>
<path d="M2152 3800 c-22 -21 -22 -24 -22 -350 0 -317 1 -331 20 -350 11 -11
31 -20 45 -20 35 0 554 316 567 346 8 17 8 31 1 47 -12 26 -539 347 -570 347
-11 0 -29 -9 -41 -20z"/>
<path d="M3475 3669 c-137 -83 -260 -161 -272 -172 -27 -25 -29 -57 -5 -85 21
-24 514 -320 547 -328 18 -4 31 1 50 20 l26 26 -3 331 c-3 314 -4 331 -22 345
-11 8 -31 14 -45 14 -16 0 -127 -61 -276 -151z"/>
<path d="M16102 3007 c-111 -259 -202 -475 -202 -480 0 -4 185 -7 410 -7 226
0 410 3 410 8 0 12 -405 951 -410 952 -3 0 -96 -213 -208 -473z"/>
<path d="M4410 3119 c-140 -88 -263 -169 -274 -179 -25 -24 -24 -70 2 -91 53
-42 532 -309 556 -309 14 0 36 10 48 22 20 20 21 26 15 186 -4 91 -7 237 -7
324 0 155 -1 159 -25 183 -13 14 -32 25 -42 25 -10 0 -133 -73 -273 -161z"/>
<path d="M4916 3261 c-21 -23 -20 -5 -18 -369 l2 -303 25 -24 c13 -14 33 -25
43 -25 30 0 552 330 565 357 7 16 7 30 0 46 -14 29 -539 337 -575 337 -14 0
-33 -8 -42 -19z"/>
<path d="M688 3110 c-369 -222 -369 -197 -2 -419 278 -169 305 -180 344 -141
19 19 20 33 20 350 0 317 -1 331 -20 350 -11 11 -32 20 -47 20 -18 0 -123 -57
-295 -160z"/>
<path d="M1200 3250 c-20 -20 -21 -30 -18 -349 3 -307 4 -330 22 -350 37 -41
64 -30 342 142 289 178 306 193 267 245 -28 37 -529 332 -565 332 -15 0 -37
-9 -48 -20z"/>
<path d="M2560 3114 c-140 -86 -263 -163 -272 -172 -19 -16 -24 -67 -10 -90
11 -16 525 -320 555 -327 15 -4 32 1 50 15 l27 21 0 330 0 330 -25 24 c-13 14
-34 25 -47 25 -13 0 -138 -70 -278 -156z"/>
<path d="M3067 3252 c-15 -17 -17 -55 -17 -344 0 -314 1 -326 21 -352 13 -17
30 -26 48 -26 18 0 107 49 257 141 325 200 308 188 312 231 2 22 -3 41 -12 51
-8 8 -132 83 -274 166 -269 157 -302 170 -335 133z"/>
<path d="M5335 2589 c-137 -88 -260 -171 -272 -185 -26 -28 -28 -51 -10 -75
20 -27 543 -319 570 -319 15 0 34 10 45 25 19 24 20 37 16 218 -9 397 -14 456
-37 478 -11 10 -30 19 -41 19 -12 -1 -133 -73 -271 -161z"/>
<path d="M296 2699 l-26 -20 0 -330 0 -330 25 -24 c13 -14 33 -25 45 -25 19 0
463 262 538 317 40 30 44 78 10 110 -35 30 -532 323 -550 323 -8 0 -27 -9 -42
-21z"/>
<path d="M1605 2560 c-166 -101 -265 -167 -275 -184 -28 -49 -5 -68 275 -238
275 -167 304 -178 341 -137 18 20 19 39 17 351 -2 295 -4 332 -19 349 -35 38
-67 25 -339 -141z"/>
<path d="M4017 2699 c-10 -6 -22 -20 -26 -32 -4 -12 -5 -165 0 -341 8 -349 10
-356 70 -356 36 0 547 324 562 357 21 47 1 64 -285 227 -150 86 -280 156 -288
156 -8 0 -23 -5 -33 -11z"/>
<path d="M4936 2157 l-26 -26 6 -318 c5 -281 8 -321 23 -343 35 -49 52 -42
336 136 161 101 270 176 275 188 18 51 0 65 -277 225 -147 85 -277 156 -290
159 -14 3 -31 -5 -47 -21z"/>
<path d="M960 2163 c-29 -12 -505 -306 -527 -326 -13 -11 -23 -32 -23 -47 0
-15 10 -36 23 -47 38 -36 531 -323 553 -323 12 0 32 8 45 19 l23 18 -2 334 -3
334 -25 23 c-25 22 -37 25 -64 15z"/>
<path d="M1217 2150 l-27 -21 0 -339 c0 -339 0 -339 22 -354 12 -9 32 -16 43
-16 32 0 554 318 567 345 24 54 13 64 -269 236 -148 89 -277 164 -288 167 -11
2 -33 -6 -48 -18z"/>
<path d="M4417 2009 c-141 -88 -265 -172 -274 -186 -31 -47 -9 -65 282 -235
148 -87 277 -158 286 -158 9 0 27 8 39 18 l23 18 -2 324 c-2 316 -5 353 -35
372 -30 20 -75 -1 -319 -153z"/>
<path d="M2787 2131 c-19 -9 -144 -83 -276 -166 -252 -157 -272 -175 -253
-226 12 -30 536 -339 576 -339 14 0 36 10 48 22 21 21 21 23 15 350 -5 287 -7
332 -22 348 -24 26 -48 30 -88 11z"/>
<path d="M3060 2130 c-19 -19 -20 -33 -20 -350 l0 -331 25 -24 c27 -28 45 -31
78 -14 70 37 514 314 525 327 19 25 14 66 -10 89 -41 36 -533 323 -556 323
-12 0 -31 -9 -42 -20z"/>
<path d="M18975 1996 c-94 -23 -153 -67 -185 -138 -35 -77 -21 -179 33 -236
36 -38 107 -70 249 -108 149 -40 172 -50 209 -91 33 -35 41 -69 29 -114 -22
-78 -103 -119 -234 -119 -92 0 -193 30 -252 75 -39 30 -46 28 -64 -16 -12 -29
-12 -33 11 -50 36 -28 103 -59 162 -75 62 -17 206 -18 277 -3 194 42 267 269
124 388 -38 31 -54 37 -319 116 -133 40 -180 112 -133 205 55 108 247 130 416
48 24 -11 44 -19 46 -17 8 11 28 70 25 73 -2 2 -23 13 -46 25 -94 47 -242 63
-348 37z"/>
<path d="M20533 2000 c-88 -19 -161 -68 -194 -132 -27 -53 -26 -158 2 -207 41
-72 80 -91 362 -172 102 -29 147 -67 153 -129 4 -31 0 -56 -13 -80 -57 -111
-306 -122 -467 -20 -26 17 -49 30 -51 28 -1 -2 -10 -18 -19 -35 l-16 -33 41
-29 c72 -53 142 -73 265 -79 164 -7 246 22 318 111 29 37 31 44 31 126 0 79
-3 91 -26 122 -39 50 -109 84 -257 124 -201 53 -242 80 -249 162 -6 63 24 109
92 143 43 21 63 25 140 24 75 0 101 -5 155 -28 86 -36 89 -36 105 2 13 30 13
33 -9 47 -75 49 -260 77 -363 55z"/>
<path d="M24084 2000 c-54 -11 -133 -51 -161 -82 -34 -37 -53 -92 -53 -158 0
-73 15 -106 72 -154 42 -37 78 -50 311 -117 106 -30 148 -67 154 -134 9 -101
-61 -155 -209 -163 -97 -5 -196 18 -259 61 -19 12 -39 26 -46 30 -6 4 -19 -7
-32 -28 l-20 -35 40 -30 c72 -52 142 -72 265 -78 163 -7 266 30 324 116 22 31
25 47 25 122 0 78 -3 90 -26 121 -39 50 -108 83 -259 124 -158 43 -204 65
-230 108 -44 71 -12 153 75 197 43 21 63 25 140 24 75 0 101 -5 155 -28 86
-36 89 -36 105 2 13 30 13 33 -9 47 -75 49 -260 77 -362 55z"/>
<path d="M19462 1978 c9 -13 90 -146 182 -296 l166 -272 0 -150 0 -150 45 0
45 0 0 156 0 157 171 281 c95 155 174 284 176 289 2 4 -17 7 -44 7 l-48 0
-149 -246 c-118 -195 -152 -243 -160 -232 -6 9 -74 119 -151 246 l-140 231
-54 1 c-53 0 -53 0 -39 -22z"/>
<path d="M21010 1960 l0 -40 155 0 155 0 0 -405 0 -405 45 0 45 0 0 405 0 405
155 0 155 0 0 40 0 40 -355 0 -355 0 0 -40z"/>
<path d="M21870 1555 l0 -445 315 0 315 0 0 45 0 45 -265 0 -265 0 0 160 0
160 225 0 225 0 0 40 0 40 -225 0 -225 0 0 160 0 160 255 0 255 0 0 40 0 40
-305 0 -305 0 0 -445z"/>
<path d="M22720 1556 l0 -446 45 0 45 0 2 349 3 350 170 -290 c152 -258 173
-289 195 -289 23 0 44 30 195 291 l170 291 3 -351 2 -351 45 0 45 0 0 446 0
445 -41 -3 -40 -3 -187 -322 c-103 -177 -190 -319 -194 -315 -4 4 -90 149
-191 322 l-185 315 -41 3 -41 3 0 -445z"/>
<path d="M3475 1444 c-143 -86 -268 -164 -277 -172 -26 -22 -23 -74 5 -99 31
-29 517 -316 542 -321 11 -2 33 6 48 18 l27 21 0 334 0 334 -26 20 c-15 12
-34 21 -43 21 -10 0 -134 -70 -276 -156z"/>
<path d="M2147 1572 c-15 -17 -17 -56 -17 -354 0 -312 1 -336 18 -351 38 -35
69 -22 327 134 138 83 260 161 273 172 12 11 22 32 22 47 0 15 -10 36 -22 48
-13 11 -137 88 -276 171 -261 155 -293 168 -325 133z"/>
<path d="M3100 1043 c-8 -3 -23 -12 -32 -21 -16 -14 -18 -43 -18 -342 0 -316
1 -328 21 -354 13 -17 30 -26 48 -26 18 0 111 52 272 151 315 195 299 183 299
223 0 18 -6 39 -12 48 -16 19 -548 330 -560 327 -2 0 -10 -3 -18 -6z"/>
<path d="M2560 884 c-140 -86 -263 -163 -272 -171 -26 -23 -23 -75 5 -100 46
-42 522 -316 549 -316 15 0 37 8 48 18 19 17 20 30 20 345 0 316 -1 328 -21
354 -13 17 -30 26 -48 26 -17 0 -117 -55 -281 -156z"/>
</g>
</svg>
